<svg width="175" height="173" viewBox="0 0 175 173" fill="none" xmlns="http://www.w3.org/2000/svg">
<rect width="175" height="173" fill="#F5F5F5"/>
<g id="Desktop/ Page 5" clip-path="url(#clip0_1949_221)">
<rect width="1728" height="1117" transform="translate(-364 -505)" fill="white"/>
<g id="Frame">
<g id="Card illustraion">
<g id="Illustration card 1">
<g id="Rectangle " filter="url(#filter0_d_1949_221)">
<rect x="-40" y="-41" width="255" height="318" rx="8" fill="white"/>
</g>
<g id="Illustration" clip-path="url(#clip1_1949_221)">
<path id="Vector" d="M88.3062 173L167.248 128.013V71.5845L88.3062 102.06V173Z" fill="#E1E4EB"/>
<path id="Vector_2" d="M47.3018 44.8224L126.244 0L175 75.4554L96.3804 120.6L47.3018 44.8224Z" fill="#E52F42"/>
<path id="Vector_3" d="M7 61.5V126L88.3061 173V110.761L47.3018 46.5968L7 61.5Z" fill="#C3C9D6"/>
<path id="Vector_4" d="M7 64.5V70L44.5 55L87.9999 119V113L47.3019 48.0429L7 64.5Z" fill="#A8ACB6"/>
<path id="Vector_5" d="M0 64.0067L2.08657 68.3134L45.3355 50.733L92.8144 122.905L96.3806 120.6L47.3019 44.8224" fill="#C3C9D6"/>
<path id="Vector_6" d="M126.244 0L76.5202 19.3485L0 64.0067L47.3019 44.8224L126.244 0Z" fill="#B2202F"/>
<path id="Vector_7" d="M38.2603 127.616L17.2744 115.681V89.4806L38.2603 101.333V127.616Z" fill="#C3C9D6"/>
<path id="Vector_8" d="M107.521 122.021L119.624 115.384V141.868L107.521 148.783V122.021Z" fill="#C3C9D6"/>
<path id="Vector_9" d="M121.325 114.456L134.078 107.459V133.615L121.325 140.896V114.456Z" fill="#C3C9D6"/>
<path id="Vector_10" d="M149.575 98.9654V124.761L135.772 132.648V106.531L149.575 98.9654Z" fill="#C3C9D6"/>
<path id="Vector_11" d="M110.733 58.8096L77.2219 78.3034L57.4185 47.4557L91.0818 27.9682L110.733 58.8096Z" fill="#C2C2C2"/>
<path id="Vector_12" d="M82.7611 52.6148L68.0729 61.3229L59.7329 48.0429L74.7625 39.3601L82.7611 52.6148Z" fill="#3D404B"/>
<path id="Vector_13" d="M99.0174 43.2626L84.3229 51.9707L75.9829 38.697L91.0125 30.0079L99.0174 43.2626Z" fill="#3D404B"/>
<path id="Vector_14" d="M108.268 57.6667L93.5797 66.3748L85.2397 53.0948L100.269 44.4119L108.268 57.6667Z" fill="#3D404B"/>
<path id="Vector_15" d="M92.0179 67.1262L77.3297 75.828L68.9897 62.5543L84.0194 53.8652L92.0179 67.1262Z" fill="#3D404B"/>
</g>
</g>
</g>
</g>
</g>
<defs>
<filter id="filter0_d_1949_221" x="-55" y="-51" width="285" height="348" filterUnits="userSpaceOnUse" color-interpolation-filters="sRGB">
<feFlood flood-opacity="0" result="BackgroundImageFix"/>
<feColorMatrix in="SourceAlpha" type="matrix" values="0 0 0 0 0 0 0 0 0 0 0 0 0 0 0 0 0 0 127 0" result="hardAlpha"/>
<feOffset dy="5"/>
<feGaussianBlur stdDeviation="7.5"/>
<feColorMatrix type="matrix" values="0 0 0 0 0 0 0 0 0 0 0 0 0 0 0 0 0 0 0.15 0"/>
<feBlend mode="normal" in2="BackgroundImageFix" result="effect1_dropShadow_1949_221"/>
<feBlend mode="normal" in="SourceGraphic" in2="effect1_dropShadow_1949_221" result="shape"/>
</filter>
<clipPath id="clip0_1949_221">
<rect width="1728" height="1117" fill="white" transform="translate(-364 -505)"/>
</clipPath>
<clipPath id="clip1_1949_221">
<rect width="175" height="173" fill="white"/>
</clipPath>
</defs>
</svg>
