<svg width="175" height="174" viewBox="0 0 175 174" fill="none" xmlns="http://www.w3.org/2000/svg">
<g clip-path="url(#clip0_1974_241)">
<path d="M88.3062 173.423L167.248 128.327V71.7597L88.3062 102.309V173.423Z" fill="#E1E4EB"/>
<path d="M47.3018 44.9321L126.244 0L175 75.6401L96.3804 120.895L47.3018 44.9321Z" fill="#E52F42"/>
<path d="M7 62V126.266L88.3061 173.423V111.033L47.3018 46.7109L7 62Z" fill="#C3C9D6"/>
<path d="M7 64V69.5L44.5 54.5L88 119.5V115.048L46.802 47.7088L7 64Z" fill="#A8ACB6"/>
<path d="M0 64.1634L2.08657 68.4806L45.3355 50.8572L92.8144 123.206L96.3806 120.895L47.3019 44.9321" fill="#C3C9D6"/>
<path d="M126.244 0L76.5202 19.3959L0 64.1634L47.3019 44.9321L126.244 0Z" fill="#B2202F"/>
<path d="M38.2603 127.928L17.2744 115.964V89.6996L38.2603 101.581V127.928Z" fill="#C3C9D6"/>
<path d="M107 122.5L119 116V142.5L107 149.5V122.5Z" fill="#C3C9D6"/>
<path d="M121 115L134 108L134.078 133.942L121 141.5V115Z" fill="#C3C9D6"/>
<path d="M150 99V124.876L136 133V107L150 99Z" fill="#C3C9D6"/>
<path d="M143.354 39.9312L77.2219 78.4951L57.4185 47.5718L123.575 9.18519L143.354 39.9312Z" fill="#B1B5BC"/>
<path d="M82.7611 52.7436L68.0729 61.473L59.7329 48.1605L74.7625 39.4564L82.7611 52.7436Z" fill="#3D404B"/>
<path d="M99.0174 43.3685L84.3229 52.0979L75.9829 38.7918L91.0125 30.0813L99.0174 43.3685Z" fill="#3D404B"/>
<path d="M108.268 57.8078L93.5797 66.5372L85.2397 53.2247L100.269 44.5206L108.268 57.8078Z" fill="#3D404B"/>
<path d="M115.159 34.3606L100.465 43.09L92.125 29.7838L107.161 21.0734L115.159 34.3606Z" fill="#3D404B"/>
<path d="M131.302 25.1501L116.614 33.8795L108.268 20.5733L123.304 11.8629L131.302 25.1501Z" fill="#3D404B"/>
<path d="M124.416 48.5467L109.722 57.2761L101.382 43.9699L116.418 35.2595L124.416 48.5467Z" fill="#3D404B"/>
<path d="M140.394 39.0956L125.706 47.825L117.366 34.5125L132.396 25.8084L140.394 39.0956Z" fill="#3D404B"/>
<path d="M92.0179 67.2905L77.3297 76.0136L68.9897 62.7074L84.0194 53.997L92.0179 67.2905Z" fill="#3D404B"/>
</g>
<defs>
<clipPath id="clip0_1974_241">
<rect width="175" height="173.423" fill="white"/>
</clipPath>
</defs>
</svg>
