<svg width="175" height="174" viewBox="0 0 175 174" fill="none" xmlns="http://www.w3.org/2000/svg">
<g id="Illustration" clip-path="url(#clip0_1974_262)">
<path id="Vector" d="M88.3062 173.223L167.248 128.179V71.6768L88.3062 102.191V173.223Z" fill="#E1E4EB"/>
<path id="Vector_2" d="M47.3018 44.8802L126.244 0L175 75.5528L96.3804 120.756L47.3018 44.8802Z" fill="#E52F42"/>
<path id="Vector_3" d="M7.10059 61.832V126.079L88.3061 173.223V110.904L47.3018 46.657L7.10059 61.832Z" fill="#C3C9D6"/>
<path id="Vector_4" d="M6.5127 64.7343L6.86046 70.1467L46.4104 54.9716L89.7605 120.756L93.3077 118.814L47.302 48.1049L6.5127 64.7343Z" fill="#A8ACB6"/>
<path id="Vector_5" d="M0 64.0893L2.08657 68.4016L45.3355 50.7985L92.8144 123.063L96.3806 120.756L47.3019 44.8802" fill="#C3C9D6"/>
<path id="Vector_6" d="M126.244 0L76.5202 19.3735L0 64.0893L47.3019 44.8802L126.244 0Z" fill="#B2202F"/>
<path id="Vector_7" d="M38.2603 127.78L17.2744 115.83V89.5961L38.2603 101.464V127.78Z" fill="#C3C9D6"/>
<path id="Vector_8" d="M107.521 122.178L119.624 115.533V142.051L107.521 148.975V122.178Z" fill="#C3C9D6"/>
<path id="Vector_9" d="M121.325 114.603L134.078 107.597V133.787L121.325 141.077V114.603Z" fill="#C3C9D6"/>
<path id="Vector_10" d="M149.575 99.0931V124.922L135.772 132.82V106.668L149.575 99.0931Z" fill="#C3C9D6"/>
<path id="Vector_11" d="M143.354 39.8851L77.2219 78.4044L57.4185 47.5169L123.575 9.17458L143.354 39.8851Z" fill="#C2C2C2"/>
<path id="Vector_12" d="M131.991 92.65L98.5305 112.144L78.7271 81.2561L112.081 61.9269L131.991 92.65Z" fill="#C2C2C2"/>
<path id="Vector_13" d="M82.7611 52.6827L68.0729 61.4021L59.7329 48.1049L74.7625 39.4109L82.7611 52.6827Z" fill="#3D404B"/>
<path id="Vector_14" d="M99.0174 43.3185L84.3229 52.0378L75.9829 38.747L91.0125 30.0466L99.0174 43.3185Z" fill="#3D404B"/>
<path id="Vector_15" d="M108.268 57.7411L93.5797 66.4604L85.2397 53.1633L100.269 44.4692L108.268 57.7411Z" fill="#3D404B"/>
<path id="Vector_16" d="M115.159 34.3209L100.465 43.0402L92.125 29.7494L107.161 21.0491L115.159 34.3209Z" fill="#3D404B"/>
<path id="Vector_17" d="M131.302 25.121L116.614 33.8404L108.268 20.5496L123.304 11.8492L131.302 25.121Z" fill="#3D404B"/>
<path id="Vector_18" d="M124.416 48.4906L109.722 57.21L101.382 43.9191L116.418 35.2188L124.416 48.4906Z" fill="#3D404B"/>
<path id="Vector_19" d="M140.394 39.0505L125.706 47.7698L117.366 34.4727L132.396 25.7786L140.394 39.0505Z" fill="#3D404B"/>
<path id="Vector_20" d="M92.0179 67.2129L77.3297 75.9259L68.9897 62.635L84.0194 53.9347L92.0179 67.2129Z" fill="#3D404B"/>
<path id="Vector_21" d="M104.12 86.7634L89.6468 95.8431L80.978 82.7546L95.7927 73.6939L104.12 86.7634Z" fill="#3D404B"/>
<path id="Vector_22" d="M120.136 77.0071L105.662 86.0805L97 72.9983L111.815 63.9312L120.136 77.0071Z" fill="#3D404B"/>
<path id="Vector_23" d="M129.741 91.1958L115.267 100.276L106.605 87.187L121.42 78.1262L129.741 91.1958Z" fill="#3D404B"/>
<path id="Vector_24" d="M113.725 101.066L99.2513 110.139L90.5889 97.0571L105.404 87.99L113.725 101.066Z" fill="#3D404B"/>
</g>
<defs>
<clipPath id="clip0_1974_262">
<rect width="175" height="173.223" fill="white"/>
</clipPath>
</defs>
</svg>
