<svg width="175" height="173" viewBox="0 0 175 173" fill="none" xmlns="http://www.w3.org/2000/svg">
<g id="Illustration" clip-path="url(#clip0_1974_288)">
<path id="Vector" d="M88.3062 172.929L167.248 127.961V71.5551L88.3062 102.018V172.929Z" fill="#E1E4EB"/>
<path id="Vector_2" d="M47.3018 44.804L126.244 0L175 75.4245L96.3804 120.55L47.3018 44.804Z" fill="#E52F42"/>
<path id="Vector_3" d="M7.10059 61.727V125.865L88.3061 172.929V110.716L47.3018 46.5777L7.10059 61.727Z" fill="#C3C9D6"/>
<path id="Vector_4" d="M6.5127 64.6243L6.86046 70.0275L46.4104 54.8783L89.7605 120.55L93.3077 118.613L47.302 48.0232L6.5127 64.6243Z" fill="#A8ACB6"/>
<path id="Vector_5" d="M0 63.9805L2.08657 68.2854L45.3355 50.7122L92.8144 122.854L96.3806 120.55L47.3019 44.804" fill="#C3C9D6"/>
<path id="Vector_6" d="M126.244 0L76.5202 19.3406L0 63.9805L47.3019 44.804L126.244 0Z" fill="#B2202F"/>
<path id="Vector_7" d="M38.2603 127.563L17.2744 115.633V89.4439L38.2603 101.292V127.563Z" fill="#C3C9D6"/>
<path id="Vector_8" d="M107.521 121.971L119.624 115.337V141.81L107.521 148.722V121.971Z" fill="#C3C9D6"/>
<path id="Vector_9" d="M121.325 114.409L134.078 107.415V133.56L121.325 140.838V114.409Z" fill="#C3C9D6"/>
<path id="Vector_10" d="M149.575 98.9248V124.71L135.772 132.594V106.487L149.575 98.9248Z" fill="#C3C9D6"/>
<path id="Vector_11" d="M143.354 39.8174L77.2219 78.2713L57.4185 47.4362L123.575 9.159L143.354 39.8174Z" fill="#C2C2C2"/>
<path id="Vector_12" d="M164.725 72.7292L98.5305 111.953L78.7271 81.1181L145.219 42.6452L164.725 72.7292Z" fill="#C2C2C2"/>
<path id="Vector_13" d="M82.7611 52.5932L68.0729 61.2978L59.7329 48.0232L74.7625 39.3439L82.7611 52.5932Z" fill="#3D404B"/>
<path id="Vector_14" d="M99.0174 43.2449L84.3229 51.9494L75.9829 38.6812L91.0125 29.9956L99.0174 43.2449Z" fill="#3D404B"/>
<path id="Vector_15" d="M108.268 57.643L93.5797 66.3475L85.2397 53.073L100.269 44.3937L108.268 57.643Z" fill="#3D404B"/>
<path id="Vector_16" d="M115.159 34.2626L100.465 42.9671L92.125 29.6989L107.161 21.0133L115.159 34.2626Z" fill="#3D404B"/>
<path id="Vector_17" d="M131.302 24.7943L116.614 33.4988L108.268 20.2306L123.304 11.545L131.302 24.7943Z" fill="#3D404B"/>
<path id="Vector_18" d="M124.176 48.3325L109.545 57.138L101.116 43.9203L116.089 35.1337L124.176 48.3325Z" fill="#3D404B"/>
<path id="Vector_19" d="M140.394 38.9841L125.706 47.6887L117.366 34.4141L132.396 25.7348L140.394 38.9841Z" fill="#3D404B"/>
<path id="Vector_20" d="M92.0179 67.0987L77.3297 75.7969L68.9897 62.5286L84.0194 53.8431L92.0179 67.0987Z" fill="#3D404B"/>
<path id="Vector_21" d="M104.12 86.616L89.6468 95.6803L80.978 82.6141L95.7927 73.5687L104.12 86.616Z" fill="#3D404B"/>
<path id="Vector_22" d="M120.136 76.8763L105.662 85.9343L97 72.8743L111.815 63.8226L120.136 76.8763Z" fill="#3D404B"/>
<path id="Vector_23" d="M129.741 91.0408L115.267 100.105L106.605 87.0389L121.42 77.9935L129.741 91.0408Z" fill="#3D404B"/>
<path id="Vector_24" d="M113.725 100.894L99.2513 109.952L90.5889 96.8923L105.404 87.8406L113.725 100.894Z" fill="#3D404B"/>
<path id="Vector_25" d="M136.714 67.1681L122.102 76.0052L113.636 62.819L128.589 53.9882L136.714 67.1681Z" fill="#3D404B"/>
<path id="Vector_26" d="M152.876 57.6683L138.264 66.5053L129.797 53.3191L144.751 44.4884L152.876 57.6683Z" fill="#3D404B"/>
<path id="Vector_27" d="M162.266 71.978L147.66 80.8151L139.193 67.6289L154.141 58.7981L162.266 71.978Z" fill="#3D404B"/>
<path id="Vector_28" d="M146.104 81.5852L131.498 90.4223L123.032 77.2361L137.979 68.4053L146.104 81.5852Z" fill="#3D404B"/>
</g>
<defs>
<clipPath id="clip0_1974_288">
<rect width="175" height="172.929" fill="white"/>
</clipPath>
</defs>
</svg>
