<svg width="186" height="166" viewBox="0 0 186 166" fill="none" xmlns="http://www.w3.org/2000/svg">
<path d="M9.68066 107.655L68.6741 141.383V76.8616L9.68066 42.6013V107.655Z" fill="#C3C9D6"/>
<path d="M68.6741 76.8616L85.4004 67.1296V132.183L68.6741 141.383V76.8616Z" fill="#E1E4EB"/>
<path d="M85.4004 67.1296L128.591 93.527V157.108L85.4004 132.183V67.1296Z" fill="#C3C9D6"/>
<path d="M128.591 93.527L170.378 68.1059V134.225L128.591 157.108V93.527Z" fill="#E1E4EB"/>
<path d="M9.68066 42.6012L69.5973 7.85542L170.378 68.1059L128.591 93.527L85.4004 67.1296L68.6741 76.8615L9.68066 42.6012Z" fill="#E52F42"/>
<path d="M19.6865 42.6012L68.6741 70.9983L85.4004 61.3968L128.591 87.126L160.063 67.1295L68.6741 13.4105L19.6865 42.6012Z" fill="#AEB1B9"/>
<path d="M19.6865 42.6012L22.9101 44.486L69.0712 16.9399V12.8101L19.6865 42.6012Z" fill="#892B35"/>
<path d="M69.071 12.8101L160.063 67.1295L156.958 69.1031L69.071 16.9399V12.8101Z" fill="#B3202F"/>
<path d="M60.4215 136.768L44.5308 127.673V91.3193L60.4215 100.649V136.768Z" fill="#AEB1B9"/>
<path d="M36.8048 107.222L19.1191 96.7065V77.3418L36.8048 87.5332V107.222Z" fill="#AEB1B9"/>
<path d="M93.106 96.3254L103.112 102.069V132.972L93.106 127.051V96.3254Z" fill="#AEB1B9"/>
<path d="M121.483 112.61V143.847L111.344 137.843V106.794L121.483 112.61Z" fill="#AEB1B9"/>
</svg>
