<svg width="186" height="166" viewBox="0 0 186 166" fill="none" xmlns="http://www.w3.org/2000/svg">
<path d="M167.807 125.42L107.596 157.108V108.935L168.244 64.5344L167.807 125.42Z" fill="#E1E4EB"/>
<path d="M107.596 108.935L11.1208 57.7979V107.031L107.596 157.108V108.935Z" fill="#C3C9D6"/>
<path d="M7.40601 51.2515V55.9026L107.56 108.934L171.267 62.3081V58.7412L69.8382 5.88318L7.40601 51.2515Z" fill="#892B35"/>
<path d="M7.56079 51.2517L108.297 104.217L171.294 58.7496L70.1752 6.03229L7.56079 51.2517Z" fill="#E52F42"/>
<path d="M124.741 113.892L138.052 107.495V126.753L124.859 133.787L124.741 113.892Z" fill="#AEB1B9"/>
<path d="M154.505 99.5911V117.972L142.067 124.609V105.566L154.505 99.5911Z" fill="#AEB1B9"/>
<path d="M59.1674 131.975L24.3776 113.908L23.6765 75.6159L59.1674 93.3676V131.975Z" fill="#AEB1B9"/>
<path d="M87.3378 134.399L70.949 125.735V108.322L87.3378 116.399V134.399Z" fill="#AEB1B9"/>
</svg>
