<svg width="186" height="166" viewBox="0 0 186 166" fill="none" xmlns="http://www.w3.org/2000/svg">
<path d="M104.298 155L168.815 117.991V71.2404L136.557 65.2058L104.298 108.249V155Z" fill="#E1E4EB"/>
<path d="M104.298 155L18.7891 105.716V65.2058L104.298 108.249V155Z" fill="#C3C9D6"/>
<path d="M100.439 113.734L13.925 66.1747V61.7574L50.8492 13L88.4279 20.2705L172.948 70.0731L173.069 72.0262L137.356 65.3507L100.439 113.734Z" fill="#B3202F"/>
<path d="M135.331 61.8261L99.8225 108.737L13.925 61.8261L50.8416 13L135.331 61.8261Z" fill="#E52F42"/>
<path d="M61.2468 130.19L30.2522 112.323V88.5736L61.2468 106.014V130.19Z" fill="#AEB1B9"/>
<path d="M72.0325 111.758L83.4347 117.663V142.977L72.0325 136.431V111.758Z" fill="#AEB1B9"/>
<path d="M135.879 96.4163V113.978L125.223 119.998V102.726L135.879 96.4163Z" fill="#AEB1B9"/>
<path d="M151.323 105.258L140.804 111.202V93.5021L151.293 87.292L151.323 105.258Z" fill="#AEB1B9"/>
</svg>
