<svg width="186" height="166" viewBox="0 0 186 166" fill="none" xmlns="http://www.w3.org/2000/svg">
<path d="M96.3479 115.694L88.4961 111.421L99.1343 109.926L106.986 114.198L96.3479 115.694Z" fill="#C62F3F"/>
<path d="M85.7095 117.19L77.8577 112.917L88.4961 111.421L96.348 115.694L85.7095 117.19Z" fill="#C62F3F"/>
<path d="M96.3048 139L88.4526 134.727L77.8577 112.917L85.7095 117.19L96.3048 139Z" fill="#621D24"/>
<path d="M106.986 114.198L96.3047 139L85.7095 117.19L96.3479 115.694L106.986 114.198Z" fill="#C62F3F"/>
<mask id="mask0_1957_224" style="mask-type:luminance" maskUnits="userSpaceOnUse" x="139" y="20" width="12" height="5">
<path d="M142.968 20.6907L150.82 24.9638C149.767 24.3906 148.521 24.1476 147.187 24.3351L139.336 20.0623C140.668 19.8748 141.915 20.1178 142.968 20.6907Z" fill="white"/>
</mask>
<g mask="url(#mask0_1957_224)">
<path d="M147.187 24.335L139.336 20.0622C140.117 19.9479 140.913 19.9889 141.679 20.183L149.531 24.4558C148.766 24.2619 147.97 24.2209 147.188 24.335" fill="#B3202F"/>
<path d="M149.531 24.4559L141.679 20.1831C142.052 20.2791 142.414 20.4129 142.76 20.5825L150.612 24.8553C150.266 24.6857 149.904 24.5518 149.531 24.4559Z" fill="#B3202F"/>
<path d="M150.611 24.8553L142.759 20.5825C142.83 20.6172 142.899 20.6533 142.968 20.6907L150.82 24.9638C150.751 24.9262 150.682 24.89 150.611 24.8553Z" fill="#B3202F"/>
</g>
<path d="M91.9937 99.8598L84.1418 95.587L92.3231 94.4366L100.175 98.7097L91.9937 99.8598Z" fill="#B3202F"/>
<mask id="mask1_1957_224" style="mask-type:luminance" maskUnits="userSpaceOnUse" x="92" y="62" width="20" height="24">
<path d="M100.198 85.6021L92.3473 81.3292C92.3082 78.6551 92.5209 76.7654 92.9855 75.6603C93.4502 74.5551 94.6387 73.0133 96.5511 71.0348C100.249 67.2125 102.663 64.2627 103.792 62.1852L111.644 66.458C110.514 68.5351 108.101 71.485 104.403 75.3076C102.489 77.2879 101.301 78.8296 100.838 79.9328C100.374 81.036 100.161 82.9258 100.198 85.6021Z" fill="white"/>
</mask>
<g mask="url(#mask1_1957_224)">
<path d="M100.198 85.6021L92.3474 81.3293C92.3122 78.7968 92.501 76.9682 92.9139 75.8434L100.766 80.1171C100.353 81.2421 100.164 83.0706 100.2 85.6027" fill="#892B35"/>
<path d="M100.766 80.1171L92.9138 75.8434C92.9369 75.7803 92.9608 75.7193 92.9855 75.6603C93.0476 75.5131 93.1224 75.3579 93.21 75.1947L101.062 79.4675C100.974 79.6305 100.9 79.7858 100.838 79.9334C100.813 79.9922 100.789 80.0532 100.766 80.1165" fill="#B3202F"/>
<path d="M101.062 79.4675L93.21 75.1947C93.3893 74.8673 93.5875 74.5507 93.8038 74.2465L101.656 78.5196C101.44 78.8237 101.241 79.1402 101.062 79.4675Z" fill="#B3202F"/>
<path d="M101.656 78.5196L93.8037 74.2465C94.1878 73.6992 94.678 73.0877 95.2743 72.4121L103.126 76.6852C102.53 77.3607 102.04 77.9721 101.656 78.5196Z" fill="#B3202F"/>
<path d="M103.127 76.6852L95.2744 72.4121C95.6564 71.9796 96.0819 71.5207 96.5511 71.0353C97.7125 69.8345 98.7474 68.7198 99.6559 67.691L107.508 71.9641C106.6 72.9927 105.565 74.1074 104.403 75.3081C103.934 75.7937 103.509 76.2527 103.127 76.6852Z" fill="#B3202F"/>
<path d="M107.508 71.9642L99.656 67.6911C100.935 66.2426 101.963 64.9648 102.739 63.8577L110.591 68.1308C109.815 69.2377 108.787 70.5155 107.508 71.9642Z" fill="#B3202F"/>
<path d="M110.591 68.1308L102.739 63.8576C103.121 63.3205 103.473 62.7623 103.792 62.1858L111.644 66.4586C111.325 67.0352 110.973 67.5935 110.591 68.1308Z" fill="#B3202F"/>
</g>
<path d="M92.0181 86.7525L84.166 82.4794L92.3475 81.3292L100.199 85.6023L92.0181 86.7525Z" fill="#B3202F"/>
<mask id="mask2_1957_224" style="mask-type:luminance" maskUnits="userSpaceOnUse" x="100" y="45" width="14" height="22">
<path d="M100.24 45.7759L108.091 50.0484C108.323 50.2114 108.55 50.383 108.771 50.563C111.828 53.0544 113.353 56.2399 113.346 60.1198C113.342 62.2684 112.775 64.3812 111.645 66.4583L103.792 62.1855C104.922 60.1084 105.49 57.9955 105.494 55.8467C105.501 51.9668 103.976 48.7814 100.919 46.2902C100.698 46.1111 100.471 45.9397 100.24 45.7759Z" fill="white"/>
</mask>
<g mask="url(#mask2_1957_224)">
<path d="M111.645 66.4586L103.792 62.1858C103.805 62.1626 103.818 62.1396 103.83 62.1164L111.682 66.3907L111.645 66.4601" fill="#B3202F"/>
<path d="M111.682 66.3907L103.83 62.1164C104.165 61.4957 104.456 60.8521 104.701 60.1903L112.553 64.4631C112.308 65.1249 112.017 65.7685 111.682 66.3892" fill="#B3202F"/>
<path d="M112.553 64.4631L104.701 60.1903C105.227 58.7599 105.491 57.3121 105.494 55.847C105.501 51.9671 103.976 48.7817 100.919 46.2905C100.343 45.8207 99.7239 45.4055 99.0708 45.0502L106.923 49.3233C107.576 49.6784 108.195 50.0935 108.771 50.5633C111.828 53.0547 113.353 56.2402 113.346 60.1201C113.343 61.5844 113.079 63.0321 112.553 64.4631" fill="#892B35"/>
</g>
<mask id="mask3_1957_224" style="mask-type:luminance" maskUnits="userSpaceOnUse" x="99" y="45" width="10" height="6">
<path d="M100.239 45.7759C99.8648 45.5124 99.4755 45.2706 99.0732 45.0516L106.927 49.3245C107.329 49.5433 107.718 49.7851 108.093 50.0487L100.239 45.7759Z" fill="white"/>
</mask>
<g mask="url(#mask3_1957_224)">
<path d="M112.553 64.4632L104.701 60.1904C105.227 58.7599 105.491 57.3122 105.494 55.847C105.501 51.9672 103.976 48.7817 100.919 46.2906C100.343 45.8208 99.7239 45.4055 99.0708 45.0502L106.923 49.3233C107.576 49.6784 108.195 50.0936 108.771 50.5634C111.828 53.0547 113.353 56.2403 113.346 60.1201C113.343 61.5845 113.079 63.0322 112.553 64.4632" fill="#892B35"/>
</g>
<mask id="mask4_1957_224" style="mask-type:luminance" maskUnits="userSpaceOnUse" x="93" y="51" width="9" height="5">
<path d="M93.699 51.6444L93.766 51.6803L101.618 55.9531L101.551 55.9172L93.699 51.6444Z" fill="white"/>
</mask>
<g mask="url(#mask4_1957_224)">
<path d="M101.417 55.8493L93.5652 51.5768C93.6341 51.6107 93.7022 51.646 93.7694 51.6826L101.622 55.9563C101.554 55.9199 101.486 55.8846 101.417 55.8505" fill="#B3202F"/>
</g>
<mask id="mask5_1957_224" style="mask-type:luminance" maskUnits="userSpaceOnUse" x="79" y="50" width="23" height="16">
<path d="M93.6991 51.6444C93.7999 51.6985 93.9341 51.772 94.034 51.8266L94.3896 52.0203L95.1335 52.4251L96.5542 53.1981L101.55 55.9172C100.275 55.2471 98.691 55.0451 96.7974 55.3114C94.5015 55.6342 92.5795 56.6077 91.0314 58.2319C89.4834 59.8561 88.4173 62.1507 87.8332 65.1157L79.9834 60.8425C80.5681 57.8778 81.6342 55.5832 83.1817 53.9588C84.7291 52.3344 86.6502 51.3609 88.945 51.0383C90.8386 50.7724 92.4233 50.9745 93.6991 51.6444Z" fill="white"/>
</mask>
<g mask="url(#mask5_1957_224)">
<path d="M87.8341 65.1157L79.9834 60.8426C80.1692 59.8755 80.4308 58.9245 80.7658 57.9985L88.6177 62.2716C88.2828 63.1977 88.0212 64.1486 87.8352 65.1157" fill="#892B35"/>
<path d="M88.6165 62.2716L80.7646 57.9985C80.9857 57.3916 81.2494 56.8011 81.5539 56.2314L89.4057 60.5043C89.1014 61.0741 88.8377 61.6647 88.6165 62.2716Z" fill="#B3202F"/>
<path d="M89.4058 60.5042L81.554 56.2314C81.7634 55.8404 81.9959 55.4622 82.25 55.0986L90.1019 59.3715C89.8478 59.7351 89.6154 60.1133 89.4058 60.5042Z" fill="#B3202F"/>
<path d="M90.1018 59.3714L82.25 55.0986C82.4633 54.7935 82.6937 54.5005 82.9399 54.2213L90.7917 58.4944C90.5457 58.7737 90.3153 59.0665 90.1018 59.3714Z" fill="#B3202F"/>
<path d="M90.7918 58.4944L82.9399 54.2222C83.0183 54.1328 83.0985 54.0453 83.1806 53.9597C83.3608 53.7708 83.5461 53.5906 83.7365 53.4191L91.5895 57.6905C91.3991 57.8617 91.2138 58.042 91.0336 58.2313C90.9523 58.3167 90.8721 58.4042 90.7929 58.4938" fill="#B3202F"/>
<path d="M91.5894 57.6905L83.7375 53.4177C84.0406 53.1443 84.3609 52.8906 84.6963 52.6582L92.5481 56.931C92.2127 57.1635 91.8925 57.4172 91.5894 57.6905Z" fill="#B3202F"/>
<path d="M92.5469 56.9316L84.6951 52.6588C85.1149 52.3679 85.558 52.1123 86.0199 51.8945L93.8718 56.1676C93.4099 56.3856 92.9668 56.6412 92.5469 56.9319" fill="#B3202F"/>
<path d="M93.8719 56.168L86.02 51.8949C86.9166 51.4722 87.892 51.1867 88.9462 51.0383C90.2541 50.8547 91.4147 50.8939 92.428 51.1559L100.28 55.429C99.267 55.1661 98.1064 55.1269 96.7983 55.3115C95.7441 55.4596 94.7686 55.7451 93.8719 56.168Z" fill="#B3202F"/>
<path d="M100.28 55.4302L92.428 51.1571C92.8204 51.2579 93.2015 51.3984 93.5654 51.5765L101.418 55.8493C101.054 55.6714 100.672 55.5309 100.28 55.4302Z" fill="#B3202F"/>
<path d="M101.418 55.8493L93.5654 51.5768C93.6344 51.6107 93.7024 51.646 93.7696 51.6826L101.622 55.9563C101.554 55.9199 101.486 55.8846 101.418 55.8505" fill="#B3202F"/>
</g>
<path d="M108.772 50.5639C111.829 53.0551 113.354 56.2405 113.347 60.1204C113.343 62.2692 112.775 64.3819 111.645 66.4586C110.515 68.5353 108.101 71.4853 104.403 75.3087C102.49 77.2878 101.301 78.8296 100.839 79.934C100.376 81.0383 100.163 82.9279 100.2 85.6026L92.0184 86.7528C91.9988 85.4854 91.989 84.7127 91.989 84.4349C91.9945 81.5693 92.4394 79.1506 93.3239 77.1787C94.2083 75.2068 95.9757 72.8789 98.6262 70.195C101.275 67.5122 102.858 65.7764 103.376 64.9875C104.173 63.7442 104.573 62.4405 104.576 61.0765C104.579 59.1922 103.879 57.6766 102.476 56.5295C101.072 55.3824 99.1796 54.9766 96.7977 55.312C94.502 55.6348 92.5801 56.6081 91.032 58.2322C89.484 59.8562 88.418 62.1507 87.8341 65.1157L79.5474 65.1856C79.7908 61.0087 81.4303 57.2604 84.4657 53.9406C87.5011 50.6208 91.4826 48.6144 96.4102 47.9215C101.593 47.192 105.714 48.0728 108.772 50.5639Z" fill="white"/>
<path d="M147.187 24.3351C150.942 23.806 154.008 26.6924 154 30.7454L153.871 100.238C153.864 104.292 150.786 108.041 147.031 108.569L106.986 114.198L96.3471 115.694L85.7107 117.19L45.6664 122.819C41.911 123.348 38.8447 120.462 38.8523 116.408L38.9813 46.916C38.9889 42.8631 42.0664 39.114 45.823 38.5858L147.187 24.3351ZM111.645 66.4586C112.775 64.3815 113.342 62.2687 113.346 60.1201C113.354 56.2402 111.829 53.0547 108.771 50.5634C105.714 48.072 101.593 47.1907 96.4096 47.9195C91.4828 48.612 87.5015 50.6183 84.4657 53.9385C81.4299 57.2587 79.7903 61.0077 79.5468 65.1856L87.8341 65.1171C88.419 62.152 89.4851 59.8574 91.0324 58.2334C92.5797 56.6093 94.5016 55.6358 96.7984 55.3129C99.1795 54.9782 101.072 55.3843 102.476 56.5312C103.88 57.6781 104.58 59.193 104.576 61.0759C104.574 62.4403 104.174 63.7441 103.376 64.9872C102.859 65.7761 101.276 67.5118 98.6263 70.1944C95.9769 72.877 94.2097 75.2048 93.3245 77.1778C92.4401 79.1501 91.9951 81.569 91.9897 84.4346C91.9897 84.7122 91.9995 85.4847 92.019 86.7519L100.198 85.6021C100.16 82.9279 100.373 81.0383 100.837 79.9334C101.3 78.8284 102.489 77.2867 104.402 75.3081C108.1 71.4871 110.513 68.5373 111.644 66.4586M100.175 98.7094L100.193 88.951L92.012 90.1012L91.9941 99.8596L100.175 98.7091" fill="#E52F42"/>
<path d="M91.9937 99.8601L92.0119 90.1017L100.194 88.9513L100.176 98.71L91.9937 99.8601Z" fill="white"/>
<mask id="mask6_1957_224" style="mask-type:luminance" maskUnits="userSpaceOnUse" x="31" y="112" width="12" height="11">
<path d="M42.0322 122.191L34.1804 117.918C32.2684 116.877 30.9953 114.749 31 112.135L38.8521 116.408C38.848 119.022 40.1203 121.149 42.0322 122.191Z" fill="white"/>
</mask>
<g mask="url(#mask6_1957_224)">
<path d="M42.0322 122.191L34.1804 117.918C32.2684 116.877 30.9953 114.749 31 112.135L38.8521 116.408C38.8471 119.022 40.1203 121.15 42.0322 122.191Z" fill="#892B35"/>
</g>
<path d="M45.8225 38.5861L37.9707 34.313L139.335 20.0623L147.187 24.3351L45.8225 38.5861Z" fill="#B3202F"/>
<path d="M38.8521 116.408L31 112.135L31.129 42.6432L38.9811 46.916L38.8521 116.408Z" fill="#B52030"/>
<mask id="mask7_1957_224" style="mask-type:luminance" maskUnits="userSpaceOnUse" x="31" y="34" width="15" height="13">
<path d="M38.9812 46.916L31.1294 42.6432C31.1367 38.5902 34.2145 34.8409 37.9708 34.313L45.8229 38.5852C42.0673 39.1143 38.9889 42.863 38.9812 46.916Z" fill="white"/>
</mask>
<g mask="url(#mask7_1957_224)">
<path d="M38.9812 46.916L31.1294 42.6432C31.1342 41.6598 31.3113 40.6849 31.6527 39.7627L39.5048 44.0355C39.1632 44.9576 38.986 45.9326 38.9812 46.916Z" fill="#B3202F"/>
<path d="M39.5047 44.0343L31.6526 39.7609C31.7981 39.3646 31.9716 38.979 32.1718 38.6073L40.0233 42.881C39.8234 43.2527 39.65 43.6381 39.5044 44.0343" fill="#B3202F"/>
<path d="M40.0235 42.881L32.1716 38.6079C32.3398 38.2947 32.5262 37.9917 32.7299 37.7005L40.582 41.9736C40.3783 42.2648 40.1919 42.5678 40.0238 42.881" fill="#B3202F"/>
<path d="M40.5831 41.9736L32.731 37.7005C32.9225 37.4272 33.1292 37.1648 33.35 36.9146L41.2022 41.1877C40.9813 41.4379 40.7746 41.7003 40.5831 41.9736Z" fill="#B3202F"/>
<path d="M41.2022 41.1877L33.3501 36.9146C33.5703 36.6652 33.8044 36.4286 34.0515 36.2059L41.9039 40.479C41.6566 40.7015 41.4225 40.9381 41.2025 41.1877" fill="#B3202F"/>
<path d="M41.9039 40.479L34.0518 36.2059C34.3141 35.9696 34.5913 35.7503 34.8815 35.5493L42.7334 39.8221C42.4431 40.0231 42.1661 40.2425 41.9039 40.479Z" fill="#B3202F"/>
<path d="M42.7331 39.8221L34.8816 35.5493C35.233 35.3055 35.604 35.0914 35.9908 34.9091L43.8432 39.1822C43.4563 39.3644 43.0852 39.5784 42.7337 39.8221" fill="#B3202F"/>
<path d="M43.8431 39.1822L35.991 34.9091C36.6175 34.6124 37.2851 34.4115 37.9713 34.313L45.8229 38.5852C45.1366 38.6838 44.4691 38.8848 43.8425 39.1816" fill="#B3202F"/>
</g>
</svg>
