<svg width="226" height="166" viewBox="0 0 226 166" fill="none" xmlns="http://www.w3.org/2000/svg">
<path d="M18 69.2864L118.379 12L96.63 99.5988L18 69.2864Z" fill="#E52F42"/>
<path d="M118.379 12L96.6299 99.5988L209 58.7212L118.379 12Z" fill="#B3202F"/>
<path d="M28.686 74.8468V113.225L96.63 144V100.432L28.686 74.8468Z" fill="#C3C9D6"/>
<path d="M96.6299 100.432L202.726 63.1705V100.432L96.6299 144V100.432Z" fill="#E1E4EB"/>
<path d="M209 58.7212V63.4919L95.7946 104.696L18 74.1987V69.2864L96.63 99.5988L209 58.7212Z" fill="#892B35"/>
<path d="M67.2713 130.808L50 122.988V100L67.6481 106.53L67.2713 130.808Z" fill="#AEB1B9"/>
<path d="M120.749 101.826L141.449 94.4741V113.976L120.749 121.661V101.826Z" fill="#AEB1B9"/>
<path d="M166.338 85.6299V104.734L148.002 111.542V92.1433L166.338 85.6299Z" fill="#AEB1B9"/>
</svg>
