<svg width="21" height="20" viewBox="0 0 21 20" fill="none" xmlns="http://www.w3.org/2000/svg">
<g clip-path="url(#clip0_1983_322)">
<path d="M19.6439 0.763892C19.4603 0.644744 19.255 0.562932 19.0398 0.52313C18.8246 0.483328 18.6037 0.486316 18.3896 0.531923C18.1756 0.577529 17.9726 0.664861 17.7923 0.78893C17.612 0.912998 17.458 1.07137 17.3389 1.255L7.99999 15.65L3.44555 11.4389C3.28486 11.2903 3.09648 11.1748 2.89117 11.0991C2.68586 11.0233 2.46763 10.9887 2.24895 10.9973C1.8073 11.0146 1.39061 11.2066 1.09055 11.5311C0.790484 11.8556 0.631627 12.2861 0.648922 12.7277C0.666217 13.1694 0.858247 13.5861 1.18277 13.8861L7.16277 19.415C7.16277 19.415 7.33444 19.5628 7.41388 19.6144C7.59748 19.7337 7.80278 19.8156 8.01805 19.8554C8.23331 19.8953 8.45432 19.8923 8.66844 19.8467C8.88255 19.8011 9.08558 19.7137 9.26592 19.5896C9.44626 19.4655 9.60036 19.307 9.71944 19.1233L20.135 3.06889C20.2541 2.88531 20.336 2.68005 20.3758 2.46485C20.4156 2.24964 20.4126 2.0287 20.367 1.81465C20.3214 1.6006 20.234 1.39763 20.11 1.21734C19.9859 1.03704 19.8275 0.882962 19.6439 0.763892Z" fill="#0B0B0C"/>
</g>
<defs>
<clipPath id="clip0_1983_322">
<rect width="20" height="20" fill="white" transform="translate(0.5)"/>
</clipPath>
</defs>
</svg>
