<svg width="226" height="200" viewBox="0 0 226 200" fill="none" xmlns="http://www.w3.org/2000/svg">
<path d="M122.73 194.13L207.49 145.62V84.34L165.11 76.43L122.73 132.85V194.13Z" fill="#E1E4EB"/>
<path d="M122.73 194.13L10.39 129.53V76.43L122.73 132.85V194.13Z" fill="#C3C9D6"/>
<path d="M117.66 140.04L4 77.7V71.91L52.51 8L101.88 17.53L212.92 82.81L213.08 85.37L166.16 76.62L117.66 140.04Z" fill="#B3202F"/>
<path d="M163.5 72L116.85 133.49L4 72L52.5 8L163.5 72Z" fill="#E52F42"/>
<path d="M66.17 161.61L25.45 138.19V107.06L66.17 129.92V161.61Z" fill="#333333"/>
<path d="M80.34 137.45L95.32 145.19V178.37L80.34 169.79V137.45Z" fill="#333333"/>
<path d="M164.22 117.34V140.36L150.22 148.25V125.61L164.22 117.34Z" fill="#AEB1B9"/>
<path d="M184.51 128.93L170.69 136.72V113.52L184.47 105.38L184.51 128.93Z" fill="#AEB1B9"/>
</svg>
