<svg width="280" height="230" viewBox="0 0 280 230" fill="none" xmlns="http://www.w3.org/2000/svg">
<path d="M198.614 147.72L122.648 104.342V40.2275L198.614 83.6052V147.72Z" fill="#C3C9D6"/>
<path d="M235.37 123.049L198.614 147.72V83.6052L234.828 51.8862L235.37 123.049Z" fill="#E1E4EB"/>
<path d="M239.514 130.742L207.668 148.835L207.971 131.753L239.514 85.2935V130.742Z" fill="#E1E4EB"/>
<path d="M239.514 85.2935L234.462 83.0478L202.958 128.655L207.971 131.753L239.514 85.2935Z" fill="#AEB1B9"/>
<path d="M202.958 128.655L207.971 131.753L207.668 148.835L202.958 145.435V128.655Z" fill="#C3C9D6"/>
<path d="M234.828 51.8862V47.9841L159.133 6L122.648 37.4164V40.2275L198.614 83.6052L234.828 51.8862Z" fill="#333333"/>
<path d="M122.648 37.4164L198.614 80.5154L234.828 47.9841L159.133 6L122.648 37.4164Z" fill="#333333"/>
<path d="M137.838 56.4096V77.2025L130.849 73.1968V52.4278L137.838 56.4096Z" fill="#333333"/>
<path d="M148.007 62.1991V83.0239L140.819 78.9067V58.1058L148.007 62.1991Z" fill="#333333"/>
<path d="M158.184 67.9966V88.8532L150.996 84.7361V63.9033L158.184 67.9966Z" fill="#333333"/>
<path d="M168.226 73.7224V94.603L161.165 90.5575V69.6928L168.226 73.7224Z" fill="#333333"/>
<path d="M177.989 79.281V100.193L171.207 96.3072V75.4187L177.989 79.281Z" fill="#333333"/>
<path d="M187.959 84.959V105.903L180.978 101.906V80.9852L187.959 84.959Z" fill="#333333"/>
<path d="M137.838 80.364V101.149L130.849 97.1433V76.3822L137.838 80.364Z" fill="#333333"/>
<path d="M148.007 86.1456V106.978L140.819 102.861V82.0523L148.007 86.1456Z" fill="#333333"/>
<path d="M158.184 91.9431V112.808L150.996 108.683V87.8498L158.184 91.9431Z" fill="#333333"/>
<path d="M168.226 97.6689V118.557L161.165 114.504V93.6473L168.226 97.6689Z" fill="#333333"/>
<path d="M177.989 103.228V124.14L171.207 120.254V99.3732L177.989 103.228Z" fill="#333333"/>
<path d="M187.959 108.906V129.858L180.978 125.852V104.932L187.959 108.906Z" fill="#333333"/>
<path d="M79.3728 215.626L178.26 158.192V124.339L128.816 134.094L79.3728 181.111V215.626Z" fill="#E1E4EB"/>
<path d="M79.3728 181.111L4.21935 139.111V173.642L79.3728 215.626V181.111Z" fill="#C3C9D6"/>
<path d="M4.21935 139.111L79.3728 181.111L128.816 134.094L178.26 124.339V121.154L102.979 79.2651L53.0572 88.8851L4.21935 134.301V139.111Z" fill="#333333"/>
<path d="M4.21935 134.301L79.3729 176.763L127.382 131.435L53.0572 88.8851L4.21935 134.301Z" fill="#E52F42"/>
<path d="M53.0572 88.8851L102.979 79.2651L178.26 121.154L127.382 131.435L53.0572 88.8851Z" fill="#B3202F"/>
<path d="M84.8161 182.84V186.097L92.8176 181.47L92.7857 178.181L84.8161 182.84Z" fill="#333333"/>
<path d="M85.1508 194.092V197.349L93.1603 192.722L93.1204 189.433L85.1508 194.092Z" fill="#333333"/>
<path d="M94.9216 188.183V191.432L102.923 186.805L102.891 183.516L94.9216 188.183Z" fill="#333333"/>
<path d="M94.8498 177.066V180.315L102.859 175.696L102.819 172.407L94.8498 177.066Z" fill="#333333"/>
<path d="M104.923 171.101V174.35L112.933 169.732L112.893 166.443L104.923 171.101Z" fill="#333333"/>
<path d="M115.013 165.344V168.593L123.022 163.966L122.983 160.677L115.013 165.344Z" fill="#333333"/>
<path d="M125.103 159.307V162.564L132.761 158.28L132.706 155.015L125.103 159.307Z" fill="#333333"/>
<path d="M134.817 153.9V157.149L142.476 152.873L142.428 149.6L134.817 153.9Z" fill="#333333"/>
<path d="M145.058 147.8V151.049L152.717 146.772L152.669 143.499L145.058 147.8Z" fill="#333333"/>
<path d="M155.1 142.138V145.395L162.759 141.11L162.703 137.845L155.1 142.138Z" fill="#333333"/>
<path d="M164.823 136.651V139.908L172.482 135.631L172.426 132.358L164.823 136.651Z" fill="#333333"/>
<path d="M135.144 164.388V167.645L142.803 163.361L142.747 160.096L135.144 164.388Z" fill="#333333"/>
<path d="M144.708 159.307V162.564L152.367 158.28L152.311 155.015L144.708 159.307Z" fill="#333333"/>
<path d="M154.742 153.9V157.149L162.4 152.873L162.353 149.6L154.742 153.9Z" fill="#333333"/>
<path d="M164.441 148.134V151.391L172.099 147.107L172.052 143.842L164.441 148.134Z" fill="#333333"/>
<path d="M104.892 182.417V185.675L112.893 181.048L112.861 177.759L104.892 182.417Z" fill="#333333"/>
<path d="M114.997 176.795V180.044L122.999 175.425L122.967 172.137L114.997 176.795Z" fill="#333333"/>
<path d="M125.103 170.695V173.944L133.104 169.325L133.072 166.036L125.103 170.695Z" fill="#333333"/>
<path d="M10.0372 176.891L24.4303 184.934L24.5897 175.115L10.0372 167.924V176.891Z" fill="#333333"/>
<path d="M30.6386 188.398L45.0557 196.457L45.4143 185.587L30.6386 178.268V188.398Z" fill="#333333"/>
<path d="M51.5429 200.081L57.7274 203.537V195.51L51.5429 192.476V200.081Z" fill="#333333"/>
<path d="M167.174 158.192L212.96 184.623V196.513L167.174 167.645V158.192Z" fill="#C3C9D6"/>
<path d="M126.68 182.083V193.973L172.665 220.308V207.702L126.68 182.083Z" fill="#C3C9D6"/>
<path d="M172.665 220.205L206.648 201.092V189.091L189.656 191.329L172.665 207.598V220.205Z" fill="#E1E4EB"/>
<path d="M143.975 165.71L159.731 162.086L206.648 189.195L189.656 191.432L143.975 165.71Z" fill="#B3202F"/>
<path d="M126.68 182.083L143.975 165.71L189.656 191.432L172.665 207.702L126.68 182.083Z" fill="#E52F42"/>
<path d="M212.96 196.513L247.141 177.91V165.71L230.046 167.645L212.96 184.623V196.513Z" fill="#E1E4EB"/>
<path d="M167.174 158.192L212.96 184.623L230.046 167.645L184.165 141.62L167.174 158.192Z" fill="#E52F42"/>
<path d="M184.165 141.62L200.575 139.111L247.141 165.71L230.046 167.645L184.165 141.62Z" fill="#B3202F"/>
<path d="M185 213.273L198.126 205.824V198L185 205.016V213.273Z" fill="#333333"/>
<path d="M225.902 181.573L239.514 173.642V182.067L225.902 189.473V181.573Z" fill="#333333"/>
</svg>
