<svg width="61" height="59" viewBox="0 0 61 59" fill="none" xmlns="http://www.w3.org/2000/svg">
<path d="M57.8624 0.858994C57.3072 0.498668 56.6864 0.251254 56.0356 0.130885C55.3848 0.0105162 54.7166 0.0195515 54.0693 0.157475C53.4219 0.295398 52.8081 0.559506 52.2629 0.934713C51.7177 1.30992 51.2517 1.78887 50.8916 2.34421L22.649 45.8775L8.87546 33.1423C8.38951 32.6929 7.81982 32.3437 7.19892 32.1146C6.57801 31.8854 5.91805 31.7808 5.25671 31.8067C3.92108 31.859 2.66094 32.4397 1.75349 33.4212C0.846038 34.4026 0.365623 35.7043 0.417927 37.0399C0.47023 38.3755 1.05097 39.6357 2.03238 40.5431L20.1171 57.2636C20.1171 57.2636 20.6362 57.7105 20.8765 57.8667C21.4317 58.2273 22.0526 58.4749 22.7036 58.5954C23.3546 58.716 24.023 58.707 24.6705 58.5691C25.318 58.4311 25.932 58.1669 26.4774 57.7916C27.0228 57.4162 27.4888 56.9371 27.8489 56.3815L59.3476 7.82976C59.7079 7.27458 59.9553 6.65384 60.0757 6.00301C60.196 5.35219 60.187 4.68402 60.0491 4.03669C59.9112 3.38935 59.6471 2.77553 59.2718 2.2303C58.8966 1.68506 58.4177 1.21908 57.8624 0.858994Z" fill="#19BB81"/>
</svg>
