<svg width="216" height="200" viewBox="0 0 216 200" fill="none" xmlns="http://www.w3.org/2000/svg">
<path d="M181.429 101.712L127.715 142.351C127.339 142.638 126.921 142.865 126.477 143.023L116.578 146.518C116.051 146.703 115.495 146.789 114.938 146.772C112.131 146.673 109.797 144.135 109.693 141.09L109.091 120.402C101.799 120.145 95.1344 120.966 89.0638 122.57C68.703 131.657 56.5028 149.489 50.6483 160.312C50.3813 160.811 49.9404 161.192 49.4109 161.382L39.5162 164.876C39.2573 164.967 38.9837 165.009 38.7096 164.999C37.3491 164.945 36.2247 163.704 36.1876 162.228L36.0374 157.066C35.0053 121.625 54.8852 92.2219 83.4995 82.1701L93.2952 78.7105C97.9838 77.0569 102.842 75.9427 107.778 75.3888L107.267 57.8152C107.232 56.7058 107.527 55.6112 108.114 54.6725C108.675 53.7716 109.523 53.0906 110.519 52.7416L110.492 52.7496L120.388 49.2553C120.926 49.0663 121.495 48.9798 122.064 49.0003C123.08 49.0367 124.116 49.4064 125.027 50.1327L181.223 94.6423C181.601 94.9432 181.93 95.3028 182.196 95.7077C183.518 97.705 183.173 100.393 181.429 101.712Z" fill="#892B35"/>
<path d="M112.168 52.4977C113.184 52.5335 114.22 52.9037 115.13 53.6301L171.327 98.1368C171.705 98.4377 172.034 98.7976 172.3 99.2028C173.621 101.2 173.277 103.888 171.533 105.207L117.818 145.847C116.991 146.479 115.975 146.805 114.938 146.772C112.131 146.673 109.797 144.135 109.694 141.089L109.091 120.402C70.1016 119.028 49.0529 148.463 40.7534 163.806C40.331 164.578 39.5587 165.029 38.7128 164.999C37.3528 164.942 36.2279 163.703 36.1913 162.227L36.0406 157.066C34.7312 112.232 66.8917 77.0581 107.869 78.5034L107.267 57.8155C107.232 56.706 107.528 55.6114 108.114 54.6727C109.057 53.1934 110.589 52.4415 112.168 52.4977Z" fill="#E93145"/>
</svg>
