<svg width="216" height="200" viewBox="0 0 216 200" fill="none" xmlns="http://www.w3.org/2000/svg">
<path d="M29.5712 97.2577L83.2855 137.547C83.6612 137.831 84.0786 138.056 84.5229 138.213L94.4221 141.677C94.9488 141.861 95.5047 141.946 96.0622 141.929C98.8694 141.831 101.203 139.315 101.307 136.296L101.909 115.787C109.201 115.532 115.866 116.346 121.936 117.936C142.297 126.944 154.497 144.622 160.352 155.352C160.619 155.847 161.06 156.225 161.589 156.413L171.484 159.877C171.743 159.968 172.016 160.009 172.29 159.999C173.651 159.946 174.775 158.715 174.812 157.252L174.963 152.135C175.995 116.999 156.115 87.8493 127.501 77.8842L117.705 74.4544C113.016 72.8151 108.158 71.7104 103.222 71.1614L103.733 53.7393C103.768 52.6394 103.473 51.5542 102.886 50.6236C102.325 49.7305 101.477 49.0554 100.481 48.7094L100.508 48.7173L90.612 45.2531C90.0738 45.0657 89.5054 44.98 88.9359 45.0003C87.9196 45.0364 86.8841 45.4029 85.9735 46.123L29.7771 90.2488C29.3989 90.5471 29.0705 90.9036 28.804 91.305C27.4817 93.2851 27.827 95.9504 29.5712 97.2577Z" fill="#892B35"/>
<path d="M98.832 48.4675C97.8156 48.503 96.7801 48.8701 95.8695 49.5902L39.6731 93.7132C39.2946 94.0116 38.966 94.3683 38.6995 94.77C37.3789 96.7501 37.7231 99.4148 39.4673 100.723L93.1815 141.012C94.0086 141.638 95.0252 141.962 96.0619 141.929C98.8691 141.831 101.203 139.315 101.306 136.295L101.909 115.787C140.898 114.424 161.947 143.606 170.247 158.817C170.669 159.582 171.441 160.029 172.287 159.999C173.647 159.943 174.772 158.715 174.809 157.251L174.959 152.134C176.269 107.687 144.108 72.8163 103.131 74.2491L103.733 53.7395C103.768 52.6395 103.472 51.5544 102.886 50.6238C101.943 49.1572 100.411 48.4118 98.832 48.4675Z" fill="#E93145"/>
</svg>
