<svg width="216" height="200" viewBox="0 0 216 200" fill="none" xmlns="http://www.w3.org/2000/svg">
<path d="M24.8837 52.6848L19.2993 56.6351V123.072L24.8837 119.134V52.6848Z" fill="#E1E4EB"/>
<path d="M78.503 89.0569L47.9591 106.736L19.2993 89.74L24.8837 86.5183V79.1072L40.0025 70.3643L78.503 89.0569Z" fill="#9EA2AC"/>
<path d="M56.7104 62.7597L30.0483 47.3116V76.3523L56.7104 91.6866V62.7597Z" fill="#B2B6C0"/>
<path d="M55.6663 72.3679L40.9448 63.8526V82.5794L55.6663 91.106V72.3679Z" fill="#E1E4EB"/>
<path d="M56.7102 73.0623L41.9888 64.547V83.2738L56.7102 91.8005V73.0623Z" fill="#6D6D6D"/>
<path d="M29.095 78.7771H30.5933V70.3984H29.095V78.7771Z" fill="#C3C9D6"/>
<path d="M30.6158 78.7771C30.6158 78.9934 30.2753 79.1756 29.844 79.1756C29.4126 79.1756 29.0835 78.9934 29.0835 78.7771C29.0835 78.5608 29.424 78.3673 29.844 78.3673C30.2639 78.3673 30.6158 78.6064 30.6158 78.7771Z" fill="#C3C9D6"/>
<path d="M26.3025 80.3367H27.8008V71.9581H26.3025V80.3367Z" fill="#C3C9D6"/>
<path d="M27.8238 80.3481C27.8238 80.5758 27.4833 80.7579 27.052 80.7579C26.6207 80.7579 26.2915 80.5758 26.2915 80.3481C26.2915 80.1204 26.632 79.9383 27.052 79.9383C27.472 79.9383 27.8238 80.1204 27.8238 80.3481Z" fill="#C3C9D6"/>
<path d="M24.8838 73.4721V74.7016L32.8518 70.0911V68.8502L24.8838 73.4721Z" fill="#E1E4EB"/>
<path d="M24.8838 73.4721L32.8518 68.8502L31.6713 68.1672L24.8838 72.106V73.4721Z" fill="#AAADB5"/>
<path d="M35.1333 134.957L91.1476 167.402V100.43L48.2998 75.6237V106.258L19.5038 89.5806V58.9575L13 55.1893V122.139L24.3504 128.742L35.1333 134.957Z" fill="#C3C9D6"/>
<path d="M91.1587 167.379L165.084 124.575V57.6255L91.1587 100.43V167.379Z" fill="#E1E4EB"/>
<path d="M13 55.178L49.5824 76.7508L98.7183 48.2337L123.201 34.0264L86.8912 13L13 55.178Z" fill="#C62233"/>
<path d="M123.689 30.7705L104.802 41.7106L104.166 42.7466L101.84 43.4182L46.9263 75.2139L68.5261 66.0953L145.289 21.6405L123.689 30.7705Z" fill="#892B35"/>
<path d="M68.5264 66.0953L91.4428 100.976L168.206 56.5213L146.413 20.9916L68.5264 66.0953Z" fill="#E93145"/>
<path d="M88.6277 99.3481L91.4426 100.976L68.5261 66.0953L46.9263 75.2139L49.5823 76.7507L68.5261 68.7477L88.6277 99.3481Z" fill="#892B35"/>
<path d="M86.8911 13L104.166 42.7466L120.42 32.296L86.8911 13Z" fill="#AA1C2B"/>
<path d="M24.1008 81.3271H22.6025V89.7058H24.1008V81.3271Z" fill="#C3C9D6"/>
<path d="M22.5796 89.7172C22.5796 89.9335 22.9201 90.1156 23.3401 90.1156C23.76 90.1156 24.1005 89.9335 24.1005 89.7172C24.1005 89.5009 23.76 89.3074 23.3401 89.3074C22.9201 89.3074 22.5796 89.4895 22.5796 89.7172Z" fill="#C3C9D6"/>
<path d="M26.8928 82.8981H25.3945V91.2768H26.8928V82.8981Z" fill="#C3C9D6"/>
<path d="M25.3721 91.2882C25.3721 91.5159 25.7126 91.698 26.1326 91.698C26.5525 91.698 26.8931 91.5159 26.8931 91.2882C26.8931 91.0605 26.5525 90.8784 26.1326 90.8784C25.7126 90.8784 25.3721 91.0605 25.3721 91.2882Z" fill="#C3C9D6"/>
<path d="M29.6623 84.4805H28.1641V92.8592H29.6623V84.4805Z" fill="#C3C9D6"/>
<path d="M28.1416 92.8592C28.1416 93.0869 28.4821 93.269 28.9021 93.269C29.3221 93.269 29.6626 93.0869 29.6626 92.8592C29.6626 92.6315 29.3221 92.4494 28.9021 92.4494C28.4821 92.4494 28.1416 92.6315 28.1416 92.8592Z" fill="#C3C9D6"/>
<path d="M32.4431 86.0515H30.9448V94.4302H32.4431V86.0515Z" fill="#C3C9D6"/>
<path d="M30.9902 94.4302C30.9902 94.6579 31.3308 94.84 31.7507 94.84C32.1707 94.84 32.5112 94.6579 32.5112 94.4302C32.5112 94.2025 32.1707 94.0318 31.7507 94.0318C31.3308 94.0318 30.9902 94.2139 30.9902 94.4302Z" fill="#C3C9D6"/>
<path d="M35.4172 87.8844H33.9189V96.263H35.4172V87.8844Z" fill="#C3C9D6"/>
<path d="M34.6565 96.6729C35.0765 96.6729 35.417 96.4894 35.417 96.263C35.417 96.0367 35.0765 95.8532 34.6565 95.8532C34.2365 95.8532 33.896 96.0367 33.896 96.263C33.896 96.4894 34.2365 96.6729 34.6565 96.6729Z" fill="#C3C9D6"/>
<path d="M38.2092 89.4554H36.7109V97.834H38.2092V89.4554Z" fill="#C3C9D6"/>
<path d="M36.6655 97.834C36.6655 98.0617 37.0061 98.2439 37.426 98.2439C37.846 98.2439 38.1865 98.0617 38.1865 97.834C38.1865 97.6063 37.846 97.4356 37.426 97.4356C37.0061 97.4356 36.6655 97.6177 36.6655 97.834Z" fill="#C3C9D6"/>
<path d="M40.9787 91.0264H39.4805V99.405H40.9787V91.0264Z" fill="#C3C9D6"/>
<path d="M39.458 99.4164C39.458 99.6441 39.7985 99.8262 40.2185 99.8262C40.6385 99.8262 40.979 99.6441 40.979 99.4164C40.979 99.1887 40.6385 99.0066 40.2185 99.0066C39.7985 99.0066 39.458 99.1887 39.458 99.4164Z" fill="#C3C9D6"/>
<path d="M43.7707 92.6087H42.2725V100.987H43.7707V92.6087Z" fill="#C3C9D6"/>
<path d="M42.25 100.987C42.25 101.215 42.5905 101.397 43.0105 101.397C43.4304 101.397 43.771 101.215 43.771 100.987C43.771 100.76 43.4304 100.578 43.0105 100.578C42.5905 100.578 42.25 100.76 42.25 100.987Z" fill="#C3C9D6"/>
<path d="M46.7107 94.4302H45.2124V102.809H46.7107V94.4302Z" fill="#C3C9D6"/>
<path d="M45.1899 102.82C45.1899 103.048 45.5304 103.23 45.9504 103.23C46.3704 103.23 46.7109 103.048 46.7109 102.82C46.7109 102.593 46.3704 102.41 45.9504 102.41C45.5304 102.41 45.1899 102.593 45.1899 102.82Z" fill="#C3C9D6"/>
<path d="M48.2997 95.9898L20.355 79.7903V81.0311L48.2997 97.2307V95.9898Z" fill="#C3C9D6"/>
<path d="M48.2997 94.6351L21.5241 79.1072L20.355 79.7903L48.2997 95.9898V94.6351Z" fill="#9EA5B6"/>
<path d="M153.416 71.5255L156.957 69.4649V82.6591L153.416 84.6399V71.5255Z" fill="#B2B6C0"/>
<path d="M148.955 74.0527L152.496 71.9922V85.1863L148.955 87.1672V74.0527Z" fill="#B2B6C0"/>
<path d="M134.234 82.1809L137.764 80.109V93.3146L134.234 95.2954V82.1809Z" fill="#B2B6C0"/>
<path d="M129.773 84.7082L133.303 82.6363V95.8418L129.773 97.8226V84.7082Z" fill="#B2B6C0"/>
<path d="M105.018 120.511V159.24L147.775 184V145.271L105.018 120.511Z" fill="#C3C9D6"/>
<path d="M105.018 119.6L147.775 144.349L207.773 109.355L165.186 84.6741L105.018 119.6Z" fill="#F33246"/>
<path d="M207.773 109.355V111.404L147.775 146.398V144.349L207.773 109.355Z" fill="#892B35"/>
<path d="M105.018 119.6V121.638L147.775 146.398V144.349L105.018 119.6Z" fill="#892B35"/>
<path d="M125.187 148.311L114.563 142.152V164.795L125.187 170.942" fill="#6D6D6D"/>
<path d="M134.165 153.263L130.624 151.191V164.397L134.165 166.377V153.263Z" fill="#A0A5B0"/>
<path d="M138.626 155.79L135.085 153.718V166.924L138.626 168.905V155.79Z" fill="#A0A5B0"/>
<path d="M63.8952 144.156L59.8999 141.811V121.706L63.8952 124.052V144.156Z" fill="#A0A5B0"/>
<path d="M69.2414 147.252L65.2461 144.919V124.814L69.2414 127.148V147.252Z" fill="#A0A5B0"/>
<path d="M74.5871 150.519L70.5918 148.186V128.081L74.5871 130.415V150.519Z" fill="#A0A5B0"/>
<path d="M79.9333 153.616L75.938 151.282V131.178L79.9333 133.512V153.616Z" fill="#A0A5B0"/>
<path d="M63.8952 110.038L59.8999 107.704V87.5998L63.8952 89.9335V110.038Z" fill="#A0A5B0"/>
<path d="M35.4056 135.299L25.0654 129.243L24.8838 109.047L35.4056 114.523V135.299Z" fill="#6D6D6D"/>
<path d="M69.2414 113.146L65.2461 110.8V90.6962L69.2414 93.0413V113.146Z" fill="#A0A5B0"/>
<path d="M74.5871 116.413L70.5918 114.068V93.9635L74.5871 96.3086V116.413Z" fill="#A0A5B0"/>
<path d="M79.9333 119.509L75.938 117.176V97.0713L79.9333 99.405V119.509Z" fill="#A0A5B0"/>
<path d="M207.989 146.615L147.775 184V146.398L207.773 111.404L207.989 146.615Z" fill="#E1E4EB"/>
<path d="M49.9683 76.5914L68.5262 68.7477L88.2191 98.722L49.9683 76.5914Z" fill="#C3C9D6"/>
</svg>
