<svg width="216" height="200" viewBox="0 0 216 200" fill="none" xmlns="http://www.w3.org/2000/svg">
<path d="M203.98 96.5203L163.686 73.8106V110.781L204.514 133.652L203.98 96.5203Z" fill="#C3C9D6"/>
<path d="M13 108.387L86.2425 66.4441V28L13 69.9432V108.387Z" fill="#E1E4EB"/>
<path d="M13 69.9432V108.387L30.0137 118.125V86.6445L44.2305 94.7822V126.263L90.4437 152.736V114.591L13 69.9432ZM78.8614 137.312L56.602 124.432V102.057L78.8614 114.948V137.312Z" fill="#C3C9D6"/>
<path d="M86.2427 28V66.4441L97.5465 72.7287L163.686 110.781V72.4754L86.2427 28Z" fill="#C3C9D6"/>
<path d="M54.9658 47.1875V84.4691L66.2696 90.7536L84.9661 101.424V69.9432L99.4614 78.219L99.473 109.792L132.421 128.806V91.686L54.9658 47.1875Z" fill="#C3C9D6"/>
<path d="M90.4438 152.713L163.686 110.781V72.6711L90.4438 114.614V152.713Z" fill="#E1E4EB"/>
<path d="M146.545 131.062V169.046L206 134.987V96.5318L146.545 131.062ZM198.526 130.326L176.243 143.183V120.818L198.503 107.938L198.526 130.326Z" fill="#E1E4EB"/>
<path d="M104.173 106.799V144.783L110.579 148.443V116.962L125.086 125.296V156.719L146.545 169.046V131.062L104.173 106.799ZM141.136 152.621L130.866 146.67V131.062L141.136 137.013V152.621Z" fill="#C3C9D6"/>
<path d="M163.686 72.4294L104.173 106.799L146.545 131.062L206 96.5318L163.686 72.4294ZM106.308 106.96L163.686 73.8221L203.98 96.5318L146.661 129.831L106.308 106.96Z" fill="#EEEFF0"/>
<path d="M138.514 125.192L163.686 110.781V73.8106L106.309 106.948L138.514 125.192Z" fill="#E1E4EB"/>
<path d="M86.2425 28L13 69.9432L90.4437 114.603L163.686 72.4294L86.2425 28ZM90.4321 113.417L15.1006 69.9777L86.2309 29.2661L161.667 72.4064L90.4321 113.417Z" fill="#EEEFF0"/>
<path d="M30.0137 86.6445L31.2903 87.3696V117.296L30.0137 118.125V86.6445Z" fill="#6D6D6D"/>
<path d="M56.6021 102.057V124.432L57.6233 123.868V102.655L56.6021 102.057Z" fill="#6D6D6D"/>
<path d="M78.8615 136.15V137.312L56.6021 124.432L57.6233 123.868L78.8615 136.15Z" fill="#8F97A8"/>
<path d="M198.526 107.938V130.314L197.505 129.739V108.525L198.526 107.938Z" fill="#6D6D6D"/>
<path d="M176.267 142.032V143.183L198.526 130.314L197.505 129.739L176.267 142.032Z" fill="#8F97A8"/>
<path d="M110.579 116.962L111.844 117.688V147.614L110.579 148.443V116.962Z" fill="#6D6D6D"/>
<path d="M130.866 131.051V146.67L131.748 146.198V131.569L130.866 131.051Z" fill="#6D6D6D"/>
<path d="M141.137 152.621V151.631L131.748 146.198L130.866 146.67L141.137 152.621Z" fill="#8F97A8"/>
<path d="M54.4551 46.8998L131.922 91.3407L132.92 90.7306L55.3835 46.1516L54.4551 46.8998Z" fill="#EEEFF0"/>
<path d="M84.9658 69.9432L86.2424 70.6683V100.583L84.9658 101.424V69.9432Z" fill="#6D6D6D"/>
<path d="M22.6904 129.532L54.7101 147.867L60.8958 144.575L28.8762 126.24L22.6904 129.532Z" fill="#E4E6EA"/>
<path d="M22.6904 131.016L54.7101 149.352V147.867L22.6904 129.532V131.016Z" fill="#8F97A8"/>
<path d="M54.7104 149.352L60.8962 146.06V144.575L54.7104 147.867V149.352Z" fill="#E1E4EB"/>
<path d="M23.5376 125.883L55.5457 144.219L61.7314 140.927L29.7117 122.591L23.5376 125.883Z" fill="#E4E6EA"/>
<path d="M23.5376 127.368L55.5457 145.703V144.219L23.5376 125.883V127.368Z" fill="#8F97A8"/>
<path d="M55.5459 145.703L61.7316 142.411V140.927L55.5459 144.219V145.703Z" fill="#E1E4EB"/>
<path d="M25.6382 140.823L57.6462 159.147L63.832 155.855L31.8239 137.531L25.6382 140.823Z" fill="#E4E6EA"/>
<path d="M25.6382 142.296L57.6462 160.632V159.147L25.6382 140.823V142.296Z" fill="#8F97A8"/>
<path d="M57.6465 160.632L63.8322 157.34V155.855L57.6465 159.147V160.632Z" fill="#E1E4EB"/>
<path d="M26.4741 137.174L58.4938 155.51L64.6795 152.218L32.6599 133.882L26.4741 137.174Z" fill="#E4E6EA"/>
<path d="M26.4741 138.659L58.4938 156.983V155.51L26.4741 137.174V138.659Z" fill="#8F97A8"/>
<path d="M58.4937 156.983L64.6794 153.691V152.218L58.4937 155.499V156.983Z" fill="#E1E4EB"/>
</svg>
