<svg width="36" height="35" viewBox="0 0 36 35" fill="none" xmlns="http://www.w3.org/2000/svg">
<g id="Icon" clip-path="url(#clip0_1_248)">
<g id="Group">
<path id="Vector" d="M25.6894 16.5942C26.0469 15.4144 26.24 14.1637 26.24 12.8687C26.24 5.77281 20.4672 0 13.3714 0C6.27555 0 0.502739 5.77281 0.502739 12.8687C0.502739 19.9645 6.27555 25.7373 13.3714 25.7373C14.6645 25.7373 15.9134 25.5447 17.0917 25.1882C17.7728 20.772 21.2725 17.2735 25.6894 16.5942ZM13.3443 11.8975H13.3985C15.279 11.8975 16.8089 13.4274 16.8089 15.3079C16.8089 16.8312 15.8048 18.1243 14.4239 18.5606V20.1052C14.4239 20.6715 13.9648 21.1306 13.3985 21.1306C12.8322 21.1306 12.3731 20.6715 12.3731 20.1052V18.7184H10.9592C10.3929 18.7184 9.9338 18.2593 9.9338 17.693C9.9338 17.1267 10.3929 16.6676 10.9592 16.6676H13.3985C14.1482 16.6676 14.7581 16.0576 14.7581 15.3079C14.7581 14.5582 14.1482 13.9483 13.3985 13.9483H13.3443C11.4638 13.9483 9.9338 12.4183 9.9338 10.5378V10.4294C9.9338 8.90606 10.9379 7.61305 12.3189 7.17671V5.6322C12.3189 5.06591 12.778 4.60681 13.3443 4.60681C13.9105 4.60681 14.3696 5.06591 14.3696 5.6322V7.019H15.7835C16.3498 7.019 16.8089 7.47811 16.8089 8.04439C16.8089 8.61068 16.3498 9.06979 15.7835 9.06979H13.3443C12.5946 9.06979 11.9846 9.67976 11.9846 10.4295V10.5379C11.9847 11.2875 12.5946 11.8975 13.3443 11.8975Z" fill="#DE2641"/>
<path id="Vector_2" d="M27.2596 18.5251C22.7175 18.5251 19.0223 22.2204 19.0223 26.7625C19.0223 31.3045 22.7175 34.9998 27.2596 34.9998C31.8017 34.9998 35.4969 31.3045 35.4969 26.7625C35.4969 22.2204 31.8017 18.5251 27.2596 18.5251ZM30.3003 28.3865C30.7008 28.7868 30.7008 29.4361 30.3003 29.8366C30.1001 30.0368 29.8377 30.1369 29.5753 30.1369C29.313 30.1369 29.0505 30.0368 28.8503 29.8366L27.2203 28.2065L25.5902 29.8366C25.39 30.0368 25.1276 30.1369 24.8652 30.1369C24.6029 30.1369 24.3404 30.0368 24.1402 29.8366C23.7398 29.4362 23.7398 28.7869 24.1402 28.3865L25.7702 26.7564L24.1402 25.1264C23.7398 24.726 23.7398 24.0767 24.1402 23.6763C24.5406 23.2759 25.1899 23.2759 25.5903 23.6763L27.2203 25.3063L28.8504 23.6763C29.2508 23.2759 29.9 23.2759 30.3005 23.6763C30.7009 24.0767 30.7009 24.726 30.3005 25.1264L28.6705 26.7564L30.3003 28.3865Z" fill="#DE2641"/>
</g>
</g>
<defs>
<clipPath id="clip0_1_248">
<rect width="35" height="35" fill="white" transform="translate(0.5)"/>
</clipPath>
</defs>
</svg>
