<svg width="20" height="20" viewBox="0 0 20 20" fill="none" xmlns="http://www.w3.org/2000/svg">
<g id="Arrow">
<path id="Vector" d="M14.0414 2.41589C14.2497 2.62422 14.3539 2.87089 14.3539 3.15589C14.3539 3.44089 14.2497 3.68728 14.0414 3.89506L7.93721 9.99923L14.0622 16.1242C14.2567 16.3187 14.3539 16.5617 14.3539 16.8534C14.3539 17.1451 14.2497 17.3951 14.0414 17.6034C13.833 17.8117 13.5864 17.9159 13.3014 17.9159C13.0164 17.9159 12.77 17.8117 12.5622 17.6034L5.56221 10.5826C5.47888 10.4992 5.41971 10.4089 5.38471 10.3117C5.34971 10.2145 5.33249 10.1103 5.33305 9.99923C5.33305 9.88812 5.35055 9.78395 5.38555 9.68673C5.42054 9.5895 5.47943 9.49923 5.56221 9.41589L12.583 2.39506C12.7775 2.20061 13.0172 2.10339 13.3022 2.10339C13.5872 2.10339 13.8336 2.20756 14.0414 2.41589Z" fill="#0B0B0C"/>
</g>
</svg>
