<svg width="19" height="20" viewBox="0 0 19 20" fill="none" xmlns="http://www.w3.org/2000/svg">
<g id="Arrow">
<path id="Vector" d="M3.91667 9.41683C4.06945 9.26405 4.26389 9.18405 4.5 9.17683C4.73611 9.16961 4.93056 9.24266 5.08333 9.396L9.16667 13.4793L9.16667 4.16683C9.16667 3.93072 9.24667 3.73267 9.40667 3.57267C9.56667 3.41267 9.76444 3.33294 10 3.3335C10.2361 3.3335 10.4342 3.4135 10.5942 3.5735C10.7542 3.7335 10.8339 3.93128 10.8333 4.16683L10.8333 13.4793L14.9167 9.396C15.0694 9.24322 15.2639 9.17017 15.5 9.17683C15.7361 9.1835 15.9306 9.2635 16.0833 9.41683C16.2361 9.56961 16.3125 9.76405 16.3125 10.0002C16.3125 10.2363 16.2361 10.4307 16.0833 10.5835L10.5833 16.0835C10.5139 16.1668 10.4269 16.226 10.3225 16.261C10.2181 16.296 10.1106 16.3132 10 16.3127C9.88889 16.3127 9.78472 16.2954 9.6875 16.261C9.59028 16.2266 9.5 16.1674 9.41667 16.0835L3.91667 10.5835C3.76389 10.4307 3.6875 10.2363 3.6875 10.0002C3.6875 9.76405 3.76389 9.56961 3.91667 9.41683Z" fill="white"/>
</g>
</svg>
