<svg width="20" height="20" viewBox="0 0 20 20" fill="none" xmlns="http://www.w3.org/2000/svg">
<g id="Arrow">
<path id="Vector" d="M5.95853 17.5841C5.75019 17.3758 5.64603 17.1291 5.64603 16.8441C5.64603 16.5591 5.75019 16.3127 5.95853 16.1049L12.0627 10.0008L5.93769 3.87577C5.74325 3.68133 5.64603 3.43827 5.64603 3.14661C5.64603 2.85494 5.75019 2.60494 5.95853 2.39661C6.16686 2.18827 6.41353 2.08411 6.69853 2.08411C6.98353 2.08411 7.22992 2.18827 7.43769 2.39661L14.4377 9.41744C14.521 9.50077 14.5802 9.59105 14.6152 9.68827C14.6502 9.7855 14.6674 9.88966 14.6669 10.0008C14.6669 10.1119 14.6494 10.2161 14.6144 10.3133C14.5794 10.4105 14.5205 10.5008 14.4377 10.5841L7.41686 17.6049C7.22242 17.7994 6.98269 17.8966 6.69769 17.8966C6.41269 17.8966 6.1663 17.7924 5.95853 17.5841Z" fill="#0B0B0C"/>
</g>
</svg>
