<svg width="65" height="65" viewBox="0 0 65 65" fill="none" xmlns="http://www.w3.org/2000/svg">
<g id="volunteer_9981830 1" clip-path="url(#clip0_101_1172)">
<g id="Group">
<path id="Vector" d="M0.577386 33.7674C0.810894 33.9293 1.0776 34.007 1.34185 34.007C1.76707 34.007 2.18549 33.8055 2.44629 33.4297L7.18879 26.5954V30.0163V32.7836L7.29371 34.4024L8.33397 50.4551C8.40815 51.5991 9.39571 52.4659 10.5391 52.3918C10.9937 52.3624 11.4032 52.1871 11.7288 51.9166C12.0543 52.1871 12.4638 52.3624 12.9184 52.3918C14.0618 52.4659 15.0494 51.5991 15.1235 50.4551L16.1638 34.4022L16.2686 32.785V30.0161V26.5955L21.011 33.4297C21.0153 33.4359 21.0205 33.4411 21.0249 33.4473C21.0481 33.4794 21.0728 33.5106 21.0989 33.5409C21.1081 33.5515 21.117 33.5625 21.1265 33.5728C21.1538 33.6025 21.183 33.6309 21.2134 33.6584C21.2218 33.666 21.2296 33.6744 21.2381 33.6818C21.2731 33.7118 21.31 33.7405 21.3487 33.7674C21.3501 33.7683 21.3517 33.769 21.3531 33.7699C21.4061 33.8064 21.4615 33.8385 21.5186 33.8667C21.534 33.8744 21.5499 33.8803 21.5655 33.8873C21.6059 33.9054 21.6468 33.9218 21.6886 33.9358C21.711 33.9433 21.7332 33.9499 21.7558 33.9562C21.7937 33.9667 21.8319 33.9751 21.8706 33.9822C21.8923 33.9862 21.9138 33.9909 21.9356 33.9938C21.9914 34.0014 22.0476 34.0059 22.1041 34.0063C22.1071 34.0063 22.1101 34.007 22.1132 34.007C22.1136 34.007 22.1139 34.0069 22.1143 34.0069C22.1147 34.0069 22.1151 34.007 22.1155 34.007C22.1185 34.007 22.1215 34.0063 22.1246 34.0063C22.181 34.0058 22.2372 34.0014 22.293 33.9938C22.3148 33.9909 22.3363 33.9862 22.358 33.9822C22.3967 33.9751 22.4349 33.9667 22.4728 33.9562C22.4954 33.9499 22.5177 33.9432 22.5401 33.9357C22.5818 33.9218 22.6224 33.9055 22.6626 33.8875C22.6785 33.8804 22.6946 33.8744 22.7102 33.8666C22.7673 33.8384 22.8225 33.8064 22.8755 33.7699C22.8769 33.769 22.8785 33.7683 22.8799 33.7674C22.9187 33.7405 22.9555 33.7118 22.9905 33.6817C22.9991 33.6743 23.0068 33.6659 23.0152 33.6583C23.0456 33.6309 23.0747 33.6025 23.1021 33.5728C23.1116 33.5624 23.1206 33.5514 23.1298 33.5407C23.156 33.5105 23.1806 33.4793 23.2037 33.4472C23.2081 33.4411 23.2133 33.4359 23.2176 33.4297L27.9601 26.5954V30.0163V32.7836L28.065 34.4024L29.1053 50.4551C29.1795 51.5991 30.167 52.4659 31.3104 52.3918C31.765 52.3624 32.1745 52.187 32.5001 51.9166C32.8256 52.187 33.2351 52.3624 33.6897 52.3918C34.8331 52.4659 35.8207 51.5991 35.8948 50.4551L36.9351 34.4022L37.0399 32.785V30.0161V26.5955L41.7823 33.4297C41.7867 33.4359 41.7918 33.4411 41.7962 33.4473C41.8194 33.4794 41.8441 33.5106 41.8703 33.5409C41.8794 33.5515 41.8883 33.5625 41.8978 33.5728C41.9252 33.6025 41.9543 33.6309 41.9847 33.6584C41.9931 33.666 42.0009 33.6744 42.0094 33.6818C42.0445 33.7118 42.0813 33.7405 42.12 33.7674C42.1214 33.7683 42.123 33.769 42.1244 33.7699C42.1774 33.8064 42.2328 33.8385 42.2899 33.8667C42.3053 33.8744 42.3212 33.8803 42.3368 33.8873C42.3772 33.9054 42.4181 33.9218 42.46 33.9358C42.4823 33.9433 42.5045 33.9499 42.5271 33.9562C42.565 33.9667 42.6032 33.9751 42.6419 33.9822C42.6636 33.9862 42.6851 33.9909 42.7069 33.9938C42.7627 34.0014 42.8189 34.0059 42.8754 34.0063C42.8784 34.0063 42.8814 34.007 42.8845 34.007C42.8849 34.007 42.8853 34.0069 42.8856 34.0069C42.886 34.0069 42.8864 34.007 42.8868 34.007C42.8898 34.007 42.8928 34.0063 42.8959 34.0063C42.9523 34.0058 43.0085 34.0014 43.0643 33.9938C43.0861 33.9909 43.1076 33.9862 43.1293 33.9822C43.1679 33.9751 43.2062 33.9667 43.2441 33.9562C43.2667 33.9499 43.289 33.9432 43.3114 33.9357C43.353 33.9218 43.3937 33.9055 43.4339 33.8875C43.4498 33.8804 43.4659 33.8744 43.4815 33.8666C43.5386 33.8384 43.5938 33.8064 43.6468 33.7699C43.6482 33.769 43.6498 33.7683 43.6512 33.7674C43.69 33.7405 43.7268 33.7118 43.7618 33.6817C43.7704 33.6743 43.7781 33.6659 43.7865 33.6583C43.8169 33.6309 43.846 33.6025 43.8734 33.5728C43.8829 33.5624 43.8919 33.5514 43.9011 33.5407C43.9273 33.5105 43.9519 33.4793 43.975 33.4472C43.9794 33.4411 43.9846 33.4359 43.9889 33.4297L48.7314 26.5954V30.0163V32.7836L48.8363 34.4024L49.8766 50.4551C49.9508 51.5991 50.9383 52.4659 52.0817 52.3918C52.5363 52.3624 52.9458 52.187 53.2714 51.9166C53.5969 52.187 54.0064 52.3624 54.461 52.3918C55.6044 52.4659 56.592 51.5991 56.6661 50.4551L57.7064 34.4022L57.8112 32.785V30.0161V26.5955L62.5536 33.4297C62.8145 33.8056 63.2328 34.007 63.6581 34.007C63.9222 34.007 64.1891 33.9293 64.4225 33.7674C65.0318 33.3446 65.183 32.5078 64.7602 31.8985L57.6806 21.6964C57.4372 21.3457 57.0565 21.1478 56.6612 21.1227C56.6128 21.1172 56.5637 21.1138 56.5139 21.1138H50.0287C49.9787 21.1138 49.9296 21.1172 49.8811 21.1227C49.4858 21.1478 49.1052 21.3456 48.8618 21.6964L42.8856 30.3086L36.9093 21.6964C36.6658 21.3457 36.2852 21.1478 35.8899 21.1227C35.8414 21.1172 35.7924 21.1138 35.7425 21.1138H29.2573C29.2074 21.1138 29.1583 21.1172 29.1098 21.1227C28.7144 21.1477 28.3339 21.3456 28.0905 21.6964L22.1142 30.3086L16.138 21.6964C15.8945 21.3457 15.5139 21.1478 15.1185 21.1227C15.0701 21.1172 15.0211 21.1138 14.9712 21.1138H8.4861C8.43613 21.1138 8.38705 21.1173 8.33856 21.1227C7.94322 21.1478 7.56267 21.3457 7.31927 21.6964L0.239705 31.8985C-0.183063 32.5078 -0.0319233 33.3445 0.577386 33.7674Z" fill="#E92A46"/>
<path id="Vector_2" d="M11.7285 20.1574C13.8144 20.1574 15.5053 18.4665 15.5053 16.3806C15.5053 14.2947 13.8144 12.6038 11.7285 12.6038C9.6426 12.6038 7.95166 14.2947 7.95166 16.3806C7.95166 18.4665 9.6426 20.1574 11.7285 20.1574Z" fill="#E92A46"/>
<path id="Vector_3" d="M32.5 20.1574C34.5858 20.1574 36.2768 18.4665 36.2768 16.3806C36.2768 14.2947 34.5858 12.6038 32.5 12.6038C30.4141 12.6038 28.7231 14.2947 28.7231 16.3806C28.7231 18.4665 30.4141 20.1574 32.5 20.1574Z" fill="#E92A46"/>
<path id="Vector_4" d="M53.2714 20.1574C55.3573 20.1574 57.0483 18.4665 57.0483 16.3806C57.0483 14.2947 55.3573 12.6038 53.2714 12.6038C51.1856 12.6038 49.4946 14.2947 49.4946 16.3806C49.4946 18.4665 51.1856 20.1574 53.2714 20.1574Z" fill="#E92A46"/>
</g>
</g>
<defs>
<clipPath id="clip0_101_1172">
<rect width="65" height="65" fill="white"/>
</clipPath>
</defs>
</svg>
