<svg width="65" height="65" viewBox="0 0 65 65" fill="none" xmlns="http://www.w3.org/2000/svg">
<g id="reliability_8071295 1" clip-path="url(#clip0_101_1240)">
<path id="Vector" fill-rule="evenodd" clip-rule="evenodd" d="M32.5014 19.9797C38.7167 19.9797 44.3444 22.4991 48.4173 26.5733C52.4902 30.6462 55.0109 36.2739 55.0109 42.4905C55.0109 48.7071 52.4915 54.3335 48.4173 58.4064C44.3431 62.4793 38.7167 64.9987 32.5014 64.9987C26.2861 64.9987 20.6584 62.4793 16.5842 58.4064C12.5113 54.3335 9.99193 48.7058 9.99193 42.4905C9.99193 36.2752 12.5113 30.6475 16.5842 26.5733C20.6584 22.4991 26.2861 19.9797 32.5014 19.9797ZM27.5198 38.7764L27.538 50.5609H39.3745C39.7697 50.5609 40.1311 50.4283 40.4093 50.2008C40.6888 49.972 40.8916 49.647 40.9709 49.2622L42.7298 40.6965C42.7818 40.4443 42.7792 40.2025 42.7233 39.9776C42.6674 39.7527 42.5582 39.5369 42.3944 39.3367C42.2332 39.1378 42.0447 38.9883 41.8367 38.8895C41.63 38.7907 41.3934 38.7413 41.1321 38.7413H34.9155C34.4124 38.7413 34.0055 38.3344 34.0055 37.8313C34.0055 37.7 34.0328 37.5765 34.0835 37.4634L34.2811 36.9018C35.2665 34.0964 35.7891 32.6079 34.4189 31.3352C34.2811 31.2065 34.1303 31.1207 33.9743 31.0778C33.8183 31.0349 33.6428 31.0323 33.4569 31.0726C33.271 31.1129 33.1124 31.187 32.9889 31.2897C32.8641 31.3937 32.7627 31.5341 32.6912 31.7083L30.2485 37.5557C29.7571 38.7309 28.5754 38.8141 27.5198 38.7764ZM25.7258 51.3461L25.705 37.9158C25.5269 36.959 23.9149 36.738 23.9149 38.4241V50.9678C23.9149 52.4901 25.3189 52.7332 25.7258 51.3461ZM39.3745 52.3809C40.1961 52.3809 40.9553 52.0962 41.5546 51.6087C42.1513 51.1212 42.5829 50.4335 42.7493 49.6262L44.5082 41.0605C44.6148 40.5405 44.607 40.0309 44.4874 39.5447C44.3678 39.0598 44.139 38.6048 43.8036 38.1927C43.4669 37.7793 43.0665 37.4634 42.6128 37.2476C42.1591 37.0318 41.6612 36.9213 41.1334 36.9213H36.1973C37.301 33.7519 37.7716 31.9696 35.6565 30.0053C35.3042 29.6777 34.8947 29.4502 34.4514 29.328C34.0081 29.2058 33.5414 29.1928 33.0734 29.2942C32.6041 29.3956 32.1855 29.601 31.8306 29.8961C31.477 30.1899 31.1988 30.5669 31.0129 31.0115L28.5702 36.8589C28.5104 37.0032 27.8565 36.9785 27.2949 36.9499C26.1561 34.3967 22.0936 34.944 22.0936 38.4254V50.9691C22.0936 54.3348 25.9585 55.2149 27.2702 52.3809H39.3745ZM32.5014 23.7783C27.3352 23.7783 22.6565 25.8726 19.2713 29.2591C15.8848 32.6456 13.7905 37.323 13.7905 42.4892C13.7905 47.6554 15.8848 52.3341 19.2713 55.7193C22.6578 59.1058 27.3352 61.2001 32.5014 61.2001C37.6676 61.2001 42.3463 59.1058 45.7315 55.7193C49.118 52.3328 51.2123 47.6554 51.2123 42.4892C51.2123 37.323 49.118 32.6443 45.7315 29.2591C42.3463 25.8726 37.6676 23.7783 32.5014 23.7783ZM44.4445 30.5461C41.3882 27.4898 37.1658 25.5983 32.5014 25.5983C27.837 25.5983 23.6146 27.4885 20.557 30.5461C17.5007 33.6024 15.6092 37.8248 15.6092 42.4892C15.6092 47.1536 17.4994 51.376 20.557 54.4336C23.6133 57.4899 27.837 59.3814 32.5014 59.3814C37.1658 59.3814 41.3882 57.4912 44.4445 54.4336C47.5008 51.3773 49.3923 47.1536 49.3923 42.4892C49.3923 37.8248 47.5021 33.6024 44.4445 30.5461ZM47.1316 27.859C43.3876 24.115 38.2149 21.7997 32.5014 21.7997C26.7879 21.7997 21.6152 24.115 17.8712 27.859C14.1272 31.603 11.8119 36.7757 11.8119 42.4892C11.8119 48.2027 14.1272 53.3754 17.8712 57.1194C21.6152 60.8634 26.7879 63.1787 32.5014 63.1787C38.2149 63.1787 43.3876 60.8634 47.1316 57.1194C50.8756 53.3754 53.1909 48.2027 53.1909 42.4892C53.1909 36.7757 50.8756 31.603 47.1316 27.859Z" fill="#E92A46"/>
<rect id="Rectangle 389" x="22.838" y="36.8918" width="3.51351" height="15.8108" fill="#E92A46"/>
<path id="Star 4" d="M32.1542 1.06438C32.263 0.72936 32.737 0.72936 32.8458 1.06438L34.8506 7.23438C34.8993 7.38421 35.0389 7.48565 35.1964 7.48565H41.684C42.0362 7.48565 42.1827 7.93642 41.8977 8.14347L36.6492 11.9567C36.5217 12.0493 36.4684 12.2135 36.5171 12.3633L38.5218 18.5333C38.6307 18.8683 38.2472 19.1469 37.9623 18.9399L32.7137 15.1266C32.5863 15.034 32.4137 15.034 32.2863 15.1266L27.0377 18.9399C26.7528 19.1469 26.3693 18.8683 26.4782 18.5333L28.4829 12.3633C28.5316 12.2135 28.4783 12.0493 28.3508 11.9567L23.1023 8.14347C22.8173 7.93642 22.9638 7.48565 23.316 7.48565H29.8036C29.9611 7.48565 30.1007 7.38421 30.1494 7.23438L32.1542 1.06438Z" fill="#E92A46"/>
<path id="Star 5" d="M55.6264 8.28655C55.7352 7.95153 56.2092 7.95153 56.3181 8.28655L58.3228 14.4566C58.3715 14.6064 58.5111 14.7078 58.6687 14.7078H65.1562C65.5084 14.7078 65.6549 15.1586 65.3699 15.3656L60.1214 19.1789C59.9939 19.2715 59.9406 19.4356 59.9893 19.5855L61.9941 25.7555C62.1029 26.0905 61.7195 26.3691 61.4345 26.162L56.186 22.3488C56.0585 22.2562 55.8859 22.2562 55.7585 22.3488L50.51 26.162C50.225 26.3691 49.8415 26.0905 49.9504 25.7555L51.9551 19.5855C52.0038 19.4356 51.9505 19.2715 51.823 19.1789L46.5745 15.3656C46.2895 15.1586 46.436 14.7078 46.7883 14.7078H53.2758C53.4333 14.7078 53.5729 14.6064 53.6216 14.4566L55.6264 8.28655Z" fill="#E92A46"/>
<path id="Star 6" d="M8.68194 8.28655C8.79079 7.95153 9.26476 7.95153 9.37361 8.28655L11.3784 14.4566C11.4271 14.6064 11.5667 14.7078 11.7242 14.7078H18.2117C18.564 14.7078 18.7105 15.1586 18.4255 15.3656L13.177 19.1789C13.0495 19.2715 12.9962 19.4356 13.0449 19.5855L15.0496 25.7555C15.1585 26.0905 14.775 26.3691 14.49 26.162L9.24152 22.3488C9.11407 22.2562 8.94149 22.2562 8.81404 22.3488L3.56552 26.162C3.28053 26.3691 2.89709 26.0905 3.00594 25.7555L5.0107 19.5855C5.05938 19.4356 5.00605 19.2715 4.8786 19.1789L-0.369919 15.3656C-0.654906 15.1586 -0.508442 14.7078 -0.156179 14.7078H6.33134C6.48888 14.7078 6.6285 14.6064 6.67718 14.4566L8.68194 8.28655Z" fill="#E92A46"/>
</g>
<defs>
<clipPath id="clip0_101_1240">
<rect width="65" height="65" fill="white"/>
</clipPath>
</defs>
</svg>
