<svg width="37" height="36" viewBox="0 0 37 36" fill="none" xmlns="http://www.w3.org/2000/svg">
<path d="M18.4888 2.89288C21.8135 2.89288 25.002 4.21361 27.3529 6.56451C29.7038 8.91541 31.0246 12.1039 31.0246 15.4286C31.0246 20.7257 27.3024 26.4986 19.9546 32.8089C19.546 33.1599 19.0251 33.3526 18.4864 33.3522C17.9478 33.3517 17.4272 33.158 17.0193 32.8063L16.5333 32.3846C9.5107 26.2389 5.95312 20.6075 5.95312 15.4286C5.95312 12.1039 7.27385 8.91541 9.62475 6.56451C11.9757 4.21361 15.1642 2.89288 18.4888 2.89288ZM18.4888 10.6072C17.2101 10.6072 15.9838 11.1151 15.0796 12.0193C14.1754 12.9235 13.6674 14.1499 13.6674 15.4286C13.6674 16.7073 14.1754 17.9337 15.0796 18.8379C15.9838 19.7421 17.2101 20.25 18.4888 20.25C19.7676 20.25 20.9939 19.7421 21.8981 18.8379C22.8023 17.9337 23.3103 16.7073 23.3103 15.4286C23.3103 14.1499 22.8023 12.9235 21.8981 12.0193C20.9939 11.1151 19.7676 10.6072 18.4888 10.6072Z" fill="white"/>
</svg>
