<svg width="71" height="38" viewBox="0 0 71 38" fill="none" xmlns="http://www.w3.org/2000/svg">
<g id="Group 1">
<path id="SUN" fill-rule="evenodd" clip-rule="evenodd" d="M59.4529 27.8092H60.7622V24.7363H59.4529V27.8092ZM59.4529 22.6878C59.5485 22.6878 59.6441 22.6878 59.7397 22.6878C60.5671 22.7216 61.3929 22.5878 62.1674 22.2944C62.9419 22.0011 63.6491 21.5542 64.2466 20.9806C64.844 20.4071 65.3194 19.7187 65.6441 18.9569C65.9688 18.195 66.1362 17.3754 66.1362 16.5472C66.1362 15.719 65.9688 14.8993 65.6441 14.1375C65.3194 13.3756 64.844 12.6872 64.2466 12.1137C63.6491 11.5402 62.9419 11.0933 62.1674 10.7999C61.3929 10.5066 60.5671 10.3728 59.7397 10.4066H59.4529V22.6878ZM59.4529 8.36655H60.7622V5.29199H59.4529V8.36655ZM67.9271 17.5834H71V15.5348H67.9271V17.5834ZM68.4222 9.32426L66.9762 7.87661L64.8048 10.0378L66.2524 11.4855L68.4222 9.32426ZM66.9762 25.2451L68.4239 23.7974L66.2524 21.6174L64.8048 23.065L66.9762 25.2451Z" fill="#DE2641"/>
<path id="ENERGY" d="M2.28416 33.3404V33.7177C2.28416 34.1638 2.37407 34.4785 2.55389 34.6617C2.73371 34.8449 3.04896 34.9354 3.49965 34.9331H4.24908C4.55541 34.9555 4.86222 34.8966 5.1385 34.7624C5.2339 34.6974 5.31234 34.6104 5.36728 34.5088C5.42223 34.4073 5.45207 34.294 5.45432 34.1786C5.45562 34.1259 5.4749 34.0753 5.50895 34.0352C5.52865 34.0171 5.55183 34.0032 5.57707 33.9944C5.60232 33.9856 5.6291 33.9821 5.65577 33.984C5.68217 33.9816 5.70876 33.9854 5.73343 33.9951C5.7581 34.0048 5.78018 34.0201 5.7979 34.0399C5.81563 34.0596 5.82852 34.0831 5.83555 34.1087C5.84259 34.1343 5.84357 34.1611 5.83843 34.1871C5.83532 34.3529 5.79469 34.5158 5.71959 34.6637C5.64448 34.8115 5.53687 34.9404 5.40482 35.0407C5.14533 35.2228 4.76009 35.3138 4.24908 35.3138H3.49965C2.94084 35.3138 2.53397 35.1864 2.27904 34.9314C2.02638 34.6737 1.90005 34.2656 1.90005 33.7108V32.6865C1.90005 32.1175 2.02638 31.7061 2.27904 31.4523C2.5317 31.1985 2.93857 31.0727 3.49965 31.075H4.24908C4.80561 31.075 5.2102 31.2036 5.46286 31.4608C5.71893 31.7152 5.84697 32.1249 5.84697 32.6865V33.1458C5.85117 33.1726 5.84892 33.2 5.8404 33.2258C5.83188 33.2516 5.81733 33.2749 5.79797 33.294C5.77861 33.313 5.75499 33.3271 5.72907 33.3352C5.70315 33.3433 5.67568 33.345 5.64894 33.3404H2.28416ZM3.49965 31.4625C3.05238 31.4625 2.73712 31.5519 2.55389 31.7305C2.37066 31.9092 2.28075 32.2285 2.28416 32.6882V32.9477H5.46286V32.6814C5.46286 32.2262 5.37181 31.9098 5.18972 31.7322C5.00762 31.5547 4.69408 31.4625 4.24908 31.4557L3.49965 31.4625ZM12.6619 35.3224C12.6355 35.3261 12.6086 35.3237 12.5834 35.3152C12.5582 35.3067 12.5352 35.2925 12.5165 35.2735C12.4978 35.2546 12.4837 35.2316 12.4754 35.2063C12.4672 35.181 12.465 35.1541 12.469 35.1277V31.2696C12.4664 31.2429 12.4695 31.2159 12.478 31.1904C12.4865 31.1649 12.5003 31.1415 12.5183 31.1216C12.5364 31.1018 12.5585 31.0859 12.583 31.0751C12.6076 31.0642 12.6342 31.0586 12.661 31.0586C12.6879 31.0586 12.7144 31.0642 12.739 31.0751C12.7636 31.0859 12.7856 31.1018 12.8037 31.1216C12.8218 31.1415 12.8355 31.1649 12.844 31.1904C12.8525 31.2159 12.8556 31.2429 12.8531 31.2696V31.8039C13.1296 31.3191 13.6685 31.0767 14.4697 31.0767H14.7258C15.2835 31.0767 15.6886 31.2053 15.9413 31.4625C16.1974 31.7169 16.3254 32.1266 16.3254 32.6882V35.1277C16.3279 35.1545 16.3248 35.1815 16.3163 35.2069C16.3078 35.2324 16.2941 35.2559 16.276 35.2757C16.2579 35.2956 16.2359 35.3115 16.2113 35.3223C16.1868 35.3332 16.1602 35.3388 16.1333 35.3388C16.1065 35.3388 16.0799 35.3332 16.0554 35.3223C16.0308 35.3115 16.0088 35.2956 15.9907 35.2757C15.9726 35.2559 15.9589 35.2324 15.9504 35.2069C15.9419 35.1815 15.9388 35.1545 15.9413 35.1277V32.6865C15.9413 32.2313 15.8497 31.9149 15.6664 31.7374C15.4832 31.5598 15.1697 31.4676 14.7258 31.4608H14.4697C14.0646 31.4364 13.6608 31.5276 13.3055 31.7237C13.1702 31.8111 13.0583 31.9302 12.9795 32.0706C12.9007 32.211 12.8573 32.3685 12.8531 32.5295V35.126C12.857 35.1522 12.8548 35.1789 12.8466 35.2041C12.8385 35.2293 12.8246 35.2522 12.806 35.2711C12.7875 35.2899 12.7648 35.3042 12.7398 35.3128C12.7148 35.3214 12.6881 35.3241 12.6619 35.3207V35.3224ZM23.2461 33.3421V33.7194C23.2461 34.1655 23.3361 34.4802 23.5159 34.6634C23.6957 34.8466 24.011 34.9371 24.4616 34.9348H25.2111C25.5174 34.9572 25.8242 34.8983 26.1005 34.7641C26.1959 34.6991 26.2743 34.6121 26.3293 34.5105C26.3842 34.409 26.4141 34.2957 26.4163 34.1803C26.4176 34.1277 26.4369 34.077 26.4709 34.0369C26.4906 34.0188 26.5138 34.0049 26.5391 33.9961C26.5643 33.9873 26.5911 33.9838 26.6178 33.9857C26.6442 33.9833 26.6707 33.9871 26.6954 33.9968C26.7201 34.0065 26.7422 34.0219 26.7599 34.0416C26.7776 34.0613 26.7905 34.0848 26.7975 34.1104C26.8046 34.136 26.8056 34.1628 26.8004 34.1888C26.7973 34.3546 26.7567 34.5175 26.6816 34.6654C26.6065 34.8132 26.4989 34.9421 26.3668 35.0424C26.1073 35.2245 25.7221 35.3155 25.2111 35.3155H24.4616C23.904 35.3155 23.4971 35.1881 23.241 34.9331C22.9884 34.6754 22.862 34.2674 22.862 33.7125V32.6882C22.862 32.1192 22.9884 31.7078 23.241 31.454C23.4937 31.2002 23.9006 31.0744 24.4616 31.0767H25.2111C25.7676 31.0767 26.1722 31.2053 26.4248 31.4625C26.6809 31.7169 26.809 32.1266 26.809 32.6882V33.1475C26.8129 33.1736 26.8107 33.2004 26.8025 33.2255C26.7944 33.2507 26.7805 33.2736 26.7619 33.2925C26.7434 33.3114 26.7207 33.3257 26.6957 33.3343C26.6707 33.3429 26.644 33.3455 26.6178 33.3421H23.2461ZM24.4616 31.4642C24.0144 31.4642 23.6991 31.5536 23.5159 31.7322C23.3326 31.9109 23.2427 32.2302 23.2461 32.69V32.9477H26.4248V32.6814C26.4248 32.2262 26.3338 31.9098 26.1517 31.7322C25.9696 31.5547 25.6561 31.4625 25.2111 31.4557L24.4616 31.4642ZM33.6239 35.3241C33.5975 35.3278 33.5706 35.3254 33.5454 35.3169C33.5201 35.3084 33.4972 35.2942 33.4785 35.2753C33.4597 35.2563 33.4457 35.2333 33.4374 35.208C33.4292 35.1827 33.427 35.1558 33.431 35.1295V31.2713C33.4284 31.2446 33.4315 31.2176 33.44 31.1921C33.4485 31.1666 33.4623 31.1432 33.4803 31.1234C33.4984 31.1035 33.5204 31.0876 33.545 31.0768C33.5696 31.0659 33.5961 31.0603 33.623 31.0603C33.6499 31.0603 33.6764 31.0659 33.701 31.0768C33.7256 31.0876 33.7476 31.1035 33.7657 31.1234C33.7838 31.1432 33.7975 31.1666 33.806 31.1921C33.8145 31.2176 33.8176 31.2446 33.8151 31.2713V32.0942C33.957 31.7762 34.1961 31.5115 34.4979 31.3379C34.8377 31.1563 35.219 31.0663 35.6041 31.0767C35.6553 31.0767 35.7044 31.097 35.7406 31.1332C35.7767 31.1694 35.7971 31.2185 35.7971 31.2696C35.7971 31.3208 35.7767 31.3698 35.7406 31.406C35.7044 31.4422 35.6553 31.4625 35.6041 31.4625C35.0556 31.4625 34.6294 31.5945 34.3255 31.8586C34.1667 32.0057 34.0395 32.1836 33.9514 32.3814C33.8634 32.5791 33.8164 32.7927 33.8134 33.0092V35.1277C33.8169 35.1535 33.8145 35.1796 33.8064 35.2043C33.7983 35.229 33.7847 35.2514 33.7665 35.27C33.7484 35.2886 33.7263 35.3029 33.7019 35.3116C33.6775 35.3204 33.6514 35.3235 33.6256 35.3207L33.6239 35.3241ZM42.6478 37.1661C42.3615 37.187 42.0768 37.1067 41.8437 36.939C41.7467 36.8492 41.6691 36.7404 41.6157 36.6195C41.5623 36.4985 41.5341 36.3679 41.533 36.2357C41.5297 36.2085 41.5321 36.181 41.54 36.1549C41.548 36.1287 41.5613 36.1045 41.5791 36.0837C41.5972 36.0663 41.6186 36.0527 41.6421 36.0439C41.6656 36.0351 41.6906 36.0312 41.7157 36.0325C41.7687 36.0288 41.8212 36.0452 41.8625 36.0786C41.8984 36.119 41.9179 36.1714 41.9172 36.2254C41.9154 36.3075 41.9317 36.3889 41.9651 36.4638C41.9984 36.5388 42.0479 36.6055 42.1101 36.6591C42.2733 36.7518 42.4606 36.7934 42.6478 36.7786H44.3464C44.6298 36.7786 44.8244 36.7256 44.9268 36.6181C45.0293 36.5105 45.0873 36.3176 45.0873 36.0325V34.6327C44.9513 34.8624 44.7447 35.042 44.4983 35.1448C44.1723 35.2716 43.8236 35.3298 43.4741 35.3155H43.1326C42.575 35.3155 42.1681 35.1881 41.912 34.9331C41.6594 34.6754 41.533 34.2674 41.533 33.7125V32.6882C41.533 32.1192 41.6594 31.7089 41.912 31.4574C42.1647 31.2059 42.5716 31.079 43.1326 31.0767H43.8804C44.1453 31.0659 44.4097 31.1095 44.6571 31.2047C44.8441 31.2857 44.9985 31.4269 45.0958 31.6059V31.2645C45.0933 31.2378 45.0964 31.2108 45.1049 31.1853C45.1134 31.1598 45.1272 31.1364 45.1452 31.1165C45.1633 31.0967 45.1853 31.0808 45.2099 31.0699C45.2345 31.0591 45.261 31.0535 45.2879 31.0535C45.3148 31.0535 45.3413 31.0591 45.3659 31.0699C45.3905 31.0808 45.4125 31.0967 45.4306 31.1165C45.4487 31.1364 45.4624 31.1598 45.4709 31.1853C45.4794 31.2108 45.4825 31.2378 45.48 31.2645V36.0257C45.48 36.4149 45.3895 36.7086 45.2102 36.8793C45.031 37.05 44.7459 37.1558 44.3567 37.1558L42.6478 37.1661ZM43.1241 34.9365H43.4655C43.8747 34.9562 44.2821 34.8704 44.6486 34.6873C44.7843 34.6148 44.8969 34.5056 44.9736 34.3722C45.0502 34.2388 45.0879 34.0865 45.0822 33.9328V32.4953C45.0822 32.1186 44.9832 31.8535 44.7851 31.6998C44.5871 31.5462 44.281 31.4676 43.8667 31.4642H43.119C42.67 31.4642 42.3559 31.5547 42.1715 31.7357C41.9871 31.9166 41.9035 32.2324 41.9035 32.69V33.7142C41.9035 34.1604 41.9928 34.4751 42.1715 34.6583C42.3627 34.8427 42.6768 34.9331 43.1258 34.9331L43.1241 34.9365ZM53.1433 37.1661C52.7575 37.1661 52.473 37.0739 52.2897 36.8895C52.1088 36.7086 52.02 36.4201 52.02 36.024C52.0175 35.9973 52.0206 35.9703 52.0291 35.9448C52.0376 35.9193 52.0513 35.8959 52.0694 35.876C52.0875 35.8562 52.1095 35.8403 52.1341 35.8294C52.1586 35.8186 52.1852 35.813 52.2121 35.813C52.2389 35.813 52.2655 35.8186 52.2901 35.8294C52.3146 35.8403 52.3367 35.8562 52.3547 35.876C52.3728 35.8959 52.3865 35.9193 52.395 35.9448C52.4035 35.9703 52.4066 35.9973 52.4041 36.024C52.4041 36.3119 52.457 36.51 52.5629 36.6181C52.7292 36.7428 52.9365 36.8002 53.1433 36.7786H54.661C54.8673 36.8016 55.0747 36.7442 55.2397 36.6181C55.3472 36.5105 55.4002 36.3125 55.4002 36.024V34.7249C55.2318 34.9412 55.0031 35.1028 54.7429 35.1892C54.436 35.2921 54.114 35.3423 53.7903 35.3377H53.5974C53.0494 35.3377 52.6517 35.2114 52.4024 34.9605C52.1532 34.7095 52.0285 34.31 52.0285 33.7655V31.2577C52.026 31.2309 52.0291 31.2039 52.0376 31.1785C52.0461 31.153 52.0598 31.1296 52.0779 31.1097C52.096 31.0898 52.118 31.074 52.1426 31.0631C52.1672 31.0522 52.1937 31.0466 52.2206 31.0466C52.2475 31.0466 52.274 31.0522 52.2986 31.0631C52.3232 31.074 52.3452 31.0898 52.3633 31.1097C52.3813 31.1296 52.3951 31.153 52.4036 31.1785C52.4121 31.2039 52.4152 31.2309 52.4127 31.2577V33.7535C52.4127 34.1951 52.4992 34.5041 52.6721 34.6805C52.8451 34.8569 53.1541 34.9439 53.5991 34.9417H53.7903C54.3343 34.9417 54.7389 34.8438 55.0041 34.648C55.1392 34.5432 55.2466 34.4069 55.3169 34.2509C55.3871 34.095 55.418 33.9242 55.407 33.7535V31.2577C55.4045 31.2309 55.4076 31.2039 55.4161 31.1785C55.4246 31.153 55.4383 31.1296 55.4564 31.1097C55.4744 31.0898 55.4965 31.074 55.521 31.0631C55.5456 31.0522 55.5722 31.0466 55.599 31.0466C55.6259 31.0466 55.6525 31.0522 55.677 31.0631C55.7016 31.074 55.7236 31.0898 55.7417 31.1097C55.7598 31.1296 55.7735 31.153 55.782 31.1785C55.7905 31.2039 55.7936 31.2309 55.7911 31.2577V36.0206C55.7911 36.4166 55.7012 36.7052 55.5214 36.8861C55.3415 37.0671 55.057 37.1592 54.6678 37.1627L53.1433 37.1661Z" fill="#0B0B0C"/>
<g id="WORK">
<path id="W" d="M12.4092 18.4917L10.1524 10.2172L7.89723 18.4917H4.04934L0 4.26782H3.96227L6.27716 13.4079L8.24378 4.26782H12.0627L14.2819 13.4079L16.4585 4.26782H20.3303L16.252 18.5003L12.4092 18.4917Z" fill="#DE2641"/>
<path id="O" d="M20.793 16.0693C20.3654 15.4363 20.0282 14.7468 19.791 14.0207C19.5229 13.18 19.3854 12.3031 19.3829 11.4207C19.3578 10.6702 19.4231 9.91931 19.5776 9.18438C19.6569 8.82343 19.7602 8.46813 19.8866 8.12083C20.2 7.23522 20.6981 6.42637 21.3479 5.74791C21.9976 5.08407 22.7816 4.56664 23.6474 4.23026C24.6215 3.85905 25.6575 3.67712 26.6997 3.69422C27.7275 3.67811 28.7488 3.8601 29.7077 4.23026C30.5621 4.56597 31.3358 5.07851 31.9782 5.73425C32.6217 6.40888 33.1145 7.21245 33.4242 8.09181C33.7858 9.08268 33.9595 10.1323 33.9363 11.1869C33.9176 11.9056 33.8168 12.6198 33.6359 13.3157C33.4759 13.9359 33.2557 14.5391 32.9786 15.1167C32.7247 15.6467 32.4248 16.1534 32.0824 16.6309L20.793 16.0693ZM26.6997 15.5264C28.9941 15.5264 30.1413 14.0799 30.1413 11.1869C30.1413 8.31317 28.9941 6.87633 26.6997 6.87633C24.4054 6.87633 23.2576 8.31317 23.2564 11.1869C23.2564 14.0788 24.4042 15.5281 26.6997 15.5349V15.5264Z" fill="#DE2641"/>
<path id="R" d="M35.1382 16.1462V4.07162H38.6668V5.77876C38.9264 5.3528 39.2539 4.9722 39.6365 4.65204C39.9513 4.39464 40.3022 4.18471 40.6778 4.02894C41.0247 3.88742 41.3895 3.79491 41.7619 3.75409C42.1368 3.71549 42.5134 3.69612 42.8903 3.69604H43.3768V7.54394C43.0327 7.48621 42.6844 7.45708 42.3355 7.45688C40.0388 7.45688 38.891 8.60465 38.8922 10.9002V15.3131L35.1382 16.1462Z" fill="#DE2641"/>
<path id="K" d="M51.4925 15.9464L50.0534 13.1586L48.2301 15.0553L48.1209 16.5081L44.4403 17.1038V0H48.2301V10.7038L52.9162 5.24092H57.5153L52.7353 10.5211C53.5649 12.1349 54.3935 13.7487 55.2209 15.3626L51.4925 15.9464Z" fill="#DE2641"/>
</g>
<g id="SET">
<path id="E" d="M36.7582 21.9709C36.8151 23.0362 37.1258 23.8824 37.6903 24.5095C37.969 24.8192 38.3121 25.0643 38.6954 25.2277C39.0787 25.391 39.4931 25.4687 39.9096 25.4552C40.4765 25.4668 41.036 25.324 41.528 25.0421C41.7484 24.9193 41.9422 24.7539 42.0982 24.5555C42.2559 24.3578 42.372 24.1301 42.4396 23.8863H46.2789C45.8408 25.3317 45.0777 26.4436 43.9897 27.2221C42.9016 28.0006 41.6014 28.3892 40.0888 28.3881C35.3897 28.3881 33.0395 25.8405 33.0384 20.7452C33.0247 19.747 33.1799 18.7536 33.4976 17.8072C33.7801 16.9713 34.2342 16.2038 34.8309 15.5538C35.425 14.9187 36.1551 14.4262 36.9665 14.113C37.8911 13.7664 38.8728 13.5972 39.8601 13.6145C42.0384 13.6145 43.6886 14.3081 44.8108 15.6955C45.933 17.0828 46.4918 19.1746 46.4872 21.9709H36.7582ZM42.6325 19.6322C42.6238 19.1677 42.5319 18.7086 42.361 18.2767C42.2151 17.9125 41.9954 17.5823 41.7157 17.307C41.4544 17.0521 41.1419 16.8554 40.799 16.73C40.459 16.6075 40.1003 16.5451 39.7389 16.5456C39.3781 16.5421 39.0204 16.6123 38.6878 16.7521C38.3552 16.8918 38.0547 17.0981 37.8047 17.3582C37.2607 17.8988 36.9483 18.6545 36.8675 19.6253L42.6325 19.6322Z" fill="#0B0B0C"/>
<path id="T" d="M45.5193 16.6755L50.9172 11.6958V14.5109H55.5094V16.9418H50.9172V23.6168C50.9172 25.1748 51.6064 25.9544 52.9846 25.9555C54.0157 25.9555 55.1043 25.634 56.2503 24.991V27.5125C55.1362 28.0971 53.8945 28.3968 52.6363 28.3848C51.3218 28.3848 50.2276 28.0235 49.3535 27.3008C49.0886 27.095 48.8581 26.8483 48.6706 26.5701C48.4666 26.2397 48.3146 25.8798 48.22 25.5032C48.1061 25.0639 48.0458 24.2262 48.039 22.9902V16.9418H45.5193V16.6755Z" fill="#0B0B0C"/>
<path id="S" d="M25.6533 16.4041C25.2836 16.4228 24.9201 16.5066 24.5796 16.6516C24.4034 16.7253 24.254 16.851 24.1511 17.0118C24.0485 17.1719 23.9978 17.3597 24.006 17.5496C24.0002 17.7472 24.0518 17.9423 24.1545 18.1112C24.2564 18.2804 24.4036 18.4176 24.5796 18.5073C25.1277 18.7879 25.707 19.0027 26.3055 19.1475C27.1078 19.3751 27.8715 19.5799 28.5965 19.762C29.2475 19.919 29.8888 20.114 30.517 20.3459C31.1911 20.5985 31.7849 21.0277 32.2361 21.5887C32.6378 22.1122 32.8387 22.8298 32.8387 23.7414C32.8387 25.2038 32.318 26.3419 31.2767 27.1557C30.2353 27.9694 28.7029 28.3786 26.6793 28.3831C24.4999 28.3831 22.8343 27.9279 21.6825 27.0174C21.135 26.6088 20.6883 26.0801 20.377 25.472C20.0657 24.8638 19.8979 24.1923 19.8866 23.5092H23.726C23.7133 23.81 23.7777 24.109 23.9131 24.3779C24.0484 24.6468 24.2502 24.8766 24.4993 25.0456C25.0149 25.4064 25.7319 25.5874 26.6503 25.5885C27.2468 25.6022 27.8397 25.4924 28.3916 25.2659C28.6189 25.1809 28.8134 25.0261 28.9471 24.8236C29.0808 24.6212 29.1469 24.3815 29.1359 24.1391C29.1461 23.9149 29.0865 23.693 28.9652 23.5041C28.8419 23.3146 28.663 23.168 28.4531 23.0841C27.9411 22.8533 27.4083 22.6715 26.862 22.5413C25.6773 22.2579 24.7218 22.0018 23.9957 21.7731C23.3499 21.5806 22.7331 21.3015 22.1622 20.9434C21.493 20.528 21.0293 20.0528 20.7709 19.5179C20.5117 18.9749 20.3798 18.38 20.3851 17.7783C20.379 17.2106 20.4851 16.6473 20.6975 16.1207C20.9149 15.5954 21.2685 15.1375 21.7218 14.7943C22.2758 14.3869 22.9038 14.0912 23.5706 13.9236C24.4632 13.699 25.3818 13.5945 26.3021 13.6129C28.3506 13.6129 29.8552 14.0027 30.8157 14.7823C31.7763 15.5619 32.3066 16.7119 32.4068 18.2324H28.8218C28.7239 17.5496 28.4753 17.0699 28.0758 16.7933C27.6763 16.5168 27.0458 16.3785 26.1843 16.3785C25.9862 16.3785 25.7985 16.3785 25.6243 16.4007" fill="#0B0B0C"/>
</g>
</g>
</svg>
