<svg width="20" height="20" viewBox="0 0 20 20" fill="none" xmlns="http://www.w3.org/2000/svg">
<g id="Icon">
<path id="Vector" d="M10 9.14141C9.43168 9.14141 8.88663 8.91752 8.48477 8.51901C8.08291 8.12049 7.85714 7.57999 7.85714 7.01641C7.85714 6.45282 8.08291 5.91232 8.48477 5.5138C8.88663 5.11529 9.43168 4.89141 10 4.89141C10.5683 4.89141 11.1134 5.11529 11.5152 5.5138C11.9171 5.91232 12.1429 6.45282 12.1429 7.01641C12.1429 7.29547 12.0874 7.57179 11.9797 7.82961C11.8721 8.08743 11.7142 8.32168 11.5152 8.51901C11.3162 8.71633 11.08 8.87286 10.82 8.97965C10.5601 9.08644 10.2814 9.14141 10 9.14141ZM10 1.06641C8.4087 1.06641 6.88258 1.69328 5.75736 2.80912C4.63214 3.92496 4 5.43837 4 7.01641C4 11.4789 10 18.0664 10 18.0664C10 18.0664 16 11.4789 16 7.01641C16 5.43837 15.3679 3.92496 14.2426 2.80912C13.1174 1.69328 11.5913 1.06641 10 1.06641Z" fill="#0B0B0C"/>
</g>
</svg>
