<svg width="12" height="17" viewBox="0 0 12 17" fill="none" xmlns="http://www.w3.org/2000/svg">
<g id="Group">
<path id="Vector" d="M5.55224 0.584717C2.49068 0.584717 -3.05176e-05 3.07579 -3.05176e-05 6.13743C-3.05176e-05 9.08452 5.03764 15.97 5.25214 16.2615L5.45233 16.534C5.47574 16.566 5.51302 16.5847 5.55224 16.5847C5.59206 16.5847 5.6291 16.566 5.65276 16.534L5.85282 16.2615C6.06744 15.97 11.105 9.08452 11.105 6.13743C11.105 3.07579 8.61387 0.584717 5.55224 0.584717ZM5.55224 4.14846C6.6492 4.14846 7.54121 5.0405 7.54121 6.13743C7.54121 7.23379 6.64916 8.1264 5.55224 8.1264C4.45592 8.1264 3.56327 7.23379 3.56327 6.13743C3.56327 5.0405 4.45588 4.14846 5.55224 4.14846Z" fill="#DE2641"/>
</g>
</svg>
