<svg width="31" height="30" viewBox="0 0 31 30" fill="none" xmlns="http://www.w3.org/2000/svg">
<g id="icon" clip-path="url(#clip0_1_262)">
<g id="Group">
<path id="XMLID_464_" d="M16.3821 8.02197V11.9873L17.96 10.4095C17.4479 9.59299 16.9354 8.82045 16.3821 8.02197Z" fill="#E92A46"/>
<path id="XMLID_463_" d="M14.6176 21.9848V8.01562C12.6886 10.8026 10.2058 14.8325 10.2058 16.7646C10.2058 19.3832 12.1169 21.5636 14.6176 21.9848Z" fill="#E92A46"/>
<path id="XMLID_462_" d="M16.3821 21.9849C18.8828 21.5636 20.7939 19.3832 20.7939 16.7647C20.7939 16.5199 20.7467 16.1426 20.5764 15.583L16.3821 19.7772V21.9849Z" fill="#E92A46"/>
<path id="Vector" d="M28.8778 11.4153L28.4925 7.49806L25.2911 5.20904L23.0019 2.0076L19.0848 1.62219L15.5 0L11.9152 1.62219L7.99806 2.0076L5.70898 5.20898L2.5076 7.49806L2.12219 11.4153L0.5 15L2.12219 18.5848L2.5076 22.5019L5.70898 24.791L7.99806 27.9924L11.9153 28.3779L15.5 30L19.0848 28.3778L23.0019 27.9925L25.291 24.7911L28.4924 22.5019L28.8779 18.5848L30.5 15L28.8778 11.4153ZM16.3824 23.7686V25.5883H14.6176V23.7686C11.1403 23.3331 8.44112 20.3582 8.44112 16.7647C8.44112 12.7414 15.478 3.87874 15.5 3.8435C15.5156 3.86856 22.5589 12.7482 22.5589 16.7647C22.5589 20.3582 19.8597 23.333 16.3824 23.7686Z" fill="#E92A46"/>
<path id="XMLID_458_" d="M16.3821 14.483V17.2815L19.8619 13.8017C19.6104 13.2725 19.2944 12.6658 18.8964 11.9688L16.3821 14.483Z" fill="#E92A46"/>
</g>
</g>
<defs>
<clipPath id="clip0_1_262">
<rect width="30" height="30" fill="white" transform="translate(0.5)"/>
</clipPath>
</defs>
</svg>
