<svg width="60" height="60" viewBox="0 0 60 60" fill="none" xmlns="http://www.w3.org/2000/svg">
<circle cx="30" cy="30" r="30" fill="#F32C40"/>
<g clip-path="url(#clip0_1093_1544)">
<path d="M36.2461 33.8765C35.462 33.1024 34.4832 33.1024 33.7041 33.8765C33.1098 34.4658 32.5155 35.0551 31.9312 35.6544C31.7713 35.8192 31.6365 35.8542 31.4417 35.7443C31.0572 35.5346 30.6477 35.3648 30.2781 35.135C28.5551 34.0513 27.1118 32.6579 25.8333 31.0897C25.199 30.3107 24.6347 29.4766 24.2401 28.5377C24.1602 28.3479 24.1752 28.2231 24.33 28.0683C24.9243 27.4939 25.5037 26.9046 26.088 26.3153C26.902 25.4963 26.902 24.5374 26.083 23.7133C25.6185 23.2439 25.1541 22.7844 24.6896 22.315C24.2102 21.8355 23.7357 21.3511 23.2513 20.8767C22.4672 20.1125 21.4883 20.1125 20.7093 20.8817C20.11 21.471 19.5356 22.0753 18.9263 22.6546C18.362 23.189 18.0773 23.8432 18.0174 24.6073C17.9225 25.8509 18.2271 27.0245 18.6566 28.1682C19.5356 30.5354 20.8741 32.6379 22.4972 34.5657C24.6896 37.1726 27.3066 39.2352 30.368 40.7235C31.7464 41.3927 33.1747 41.9071 34.7279 41.992C35.7967 42.052 36.7256 41.7823 37.4697 40.9482C37.9791 40.3789 38.5534 39.8595 39.0928 39.3151C39.8919 38.5061 39.8969 37.5272 39.1028 36.7282C38.1539 35.7743 37.2 34.8254 36.2461 33.8765Z" fill="white"/>
<path d="M35.2921 29.8961L37.135 29.5815C36.8453 27.8885 36.0462 26.3553 34.8326 25.1367C33.5491 23.8532 31.926 23.0441 30.1381 22.7944L29.8784 24.6473C31.2618 24.842 32.5203 25.4663 33.5142 26.4602C34.4531 27.3991 35.0674 28.5877 35.2921 29.8961Z" fill="white"/>
<path d="M38.1741 21.8855C36.0466 19.7579 33.3548 18.4145 30.3832 18L30.1235 19.8528C32.6905 20.2124 35.0178 21.3761 36.8557 23.2089C38.5986 24.9519 39.7423 27.1543 40.1568 29.5765L41.9997 29.2619C41.5152 26.4551 40.1918 23.9081 38.1741 21.8855Z" fill="white"/>
</g>
<defs>
<clipPath id="clip0_1093_1544">
<rect width="24" height="24" fill="white" transform="translate(18 18)"/>
</clipPath>
</defs>
</svg>
