<svg width="65" height="65" viewBox="0 0 65 65" fill="none" xmlns="http://www.w3.org/2000/svg">
<g id="_x32_3_x2C__Justice_Scale_x2C__judge_x2C__truth_x2C__law_x2C__balance_x2C__miscellaneous">
<g id="Group">
<g id="Group_2">
<path id="Vector" d="M63.7255 40.7843H62.0202L54.0244 21.937C55.6062 21.2507 56.7157 19.6744 56.7157 17.8431V16.4005C57.8362 15.9825 58.9105 15.4013 59.9026 14.6569H63.7255C64.4293 14.6569 65 14.0861 65 13.3824C65 12.6786 64.4293 12.1078 63.7255 12.1078H59.4648C59.1728 12.1078 58.8896 12.208 58.6628 12.3919C57.6021 13.2507 56.4115 13.873 55.1384 14.2461C55.1047 14.2542 55.0716 14.2633 55.0391 14.2741C53.2564 14.7765 51.3109 14.7929 49.4707 14.2741C49.4382 14.2633 49.405 14.2542 49.3715 14.2461C48.0983 13.873 46.9077 13.2507 45.847 12.3919C45.6202 12.2081 45.337 12.1078 45.045 12.1078H39.3917C39.0872 10.4579 38.205 9.00798 36.9609 7.97907V4.46078C36.9609 2.00111 34.9598 0 32.5001 0C30.0405 0 28.0393 2.00111 28.0393 4.46078V7.97907C26.7953 9.00798 25.9131 10.4579 25.6086 12.1078H19.955C19.663 12.1078 19.3798 12.208 19.153 12.3919C15.4689 15.3748 10.1215 15.4559 6.33712 12.3919C6.11026 12.208 5.82719 12.1078 5.5352 12.1078H1.27451C0.570726 12.1078 0 12.6786 0 13.3824C0 14.0861 0.570726 14.6569 1.27451 14.6569H5.0974C6.08897 15.401 7.16338 15.9822 8.28431 16.4004V17.8431C8.28431 19.6744 9.39377 21.2507 10.9756 21.937L2.9798 40.7843H1.27451C0.570726 40.7843 0 41.355 0 42.0588C0 49.0866 5.71732 54.8039 12.7451 54.8039C19.7729 54.8039 25.4902 49.0866 25.4902 42.0588C25.4902 41.355 24.9195 40.7843 24.2157 40.7843H22.5104L14.5146 21.937C16.0964 21.2507 17.2059 19.6744 17.2059 17.8431V16.4005C18.3264 15.9825 19.4007 15.4013 20.3928 14.6569H25.6085C25.913 16.3068 26.7952 17.7567 28.0392 18.7856V56.0784H23.536C21.0998 56.0784 19.1176 58.0606 19.1176 60.4968V62.451H15.2941C14.5903 62.451 14.0196 63.0217 14.0196 63.7255C14.0196 64.4293 14.5903 65 15.2941 65H49.7059C50.4097 65 50.9804 64.4293 50.9804 63.7255C50.9804 63.0217 50.4097 62.451 49.7059 62.451H45.8824V60.4968C45.8824 58.0606 43.9002 56.0784 41.464 56.0784H36.9608V18.7856C38.2048 17.7567 39.0871 16.3068 39.3915 14.6569H44.6072C45.5988 15.401 46.6732 15.9822 47.7941 16.4004V17.8431C47.7941 19.6744 48.9036 21.2507 50.4854 21.937L42.4896 40.7843H40.7843C40.0805 40.7843 39.5098 41.355 39.5098 42.0588C39.5098 49.0866 45.2271 54.8039 52.2549 54.8039C59.2827 54.8039 65 49.0866 65 42.0588C65 41.355 64.4293 40.7843 63.7255 40.7843ZM5.74868 40.7843L12.7451 24.2927L19.7415 40.7843H5.74868ZM14.6569 17.8431C14.6569 18.8973 13.7992 19.7549 12.7451 19.7549C11.691 19.7549 10.8333 18.8973 10.8333 17.8431V17.0591C12.1002 17.2505 13.3897 17.2506 14.6569 17.0592V17.8431ZM30.5882 4.46078C30.5882 3.40664 31.4459 2.54902 32.5 2.54902C33.5541 2.54902 34.4118 3.40664 34.4118 4.46078V6.63969C33.1961 6.29455 31.8811 6.27263 30.5882 6.63969V4.46078ZM43.3333 60.4968V62.451H21.6667V60.4968C21.6667 59.4661 22.5053 58.6275 23.536 58.6275H41.464C42.4947 58.6275 43.3333 59.4661 43.3333 60.4968ZM34.4118 56.0784H30.5882V20.125C31.8039 20.4702 33.1189 20.4921 34.4118 20.125V56.0784ZM32.5 17.8431C30.0403 17.8431 28.0392 15.842 28.0392 13.3824C28.0392 10.9227 30.0403 8.92157 32.5 8.92157C34.9597 8.92157 36.9608 10.9227 36.9608 13.3824C36.9608 15.842 34.9597 17.8431 32.5 17.8431ZM50.3431 17.0591C51.61 17.2505 52.8996 17.2506 54.1667 17.0592V17.8431C54.1667 18.8973 53.3091 19.7549 52.2549 19.7549C51.2008 19.7549 50.3431 18.8973 50.3431 17.8431V17.0591ZM52.2549 24.2927L59.2513 40.7843H45.2585L52.2549 24.2927Z" fill="#E92A46"/>
</g>
</g>
</g>
</svg>
