<svg width="65" height="65" viewBox="0 0 65 65" fill="none" xmlns="http://www.w3.org/2000/svg">
<g id="trophy_8658217 (1) 1">
<rect id="Rectangle 392" x="30.5882" y="22.9412" width="3.82353" height="9.55882" fill="white"/>
<rect id="Rectangle 393" x="24.8529" y="30.5881" width="15.2941" height="1.91176" fill="white"/>
<path id="Rectangle 391" d="M24.8529 3.82349H40.1471V20.8529C40.1471 23.062 38.3562 24.8529 36.1471 24.8529H28.8529C26.6438 24.8529 24.8529 23.062 24.8529 20.8529V3.82349Z" fill="white"/>
<path id="Rectangle 390" d="M19.1176 7.64697H45.8824L43.9706 17.2058H20.0735L19.1176 7.64697Z" fill="white"/>
<path id="Vector" d="M40.7164 2.27466H24.2844C23.7449 2.27466 23.3094 2.71016 23.3094 3.24966V5.81066H19.2404C18.9609 5.81066 18.7009 5.92766 18.5124 6.13566C18.3304 6.34366 18.2394 6.61666 18.2719 6.89616L19.5784 18.3557C19.6369 18.8497 20.0529 19.2202 20.5469 19.2202H23.8749C24.8044 21.7617 26.8259 23.8157 29.4584 24.7322V28.8077H26.3579C24.6809 28.8077 23.3094 30.1727 23.3094 31.8562V33.2342C23.3094 33.7737 23.7449 34.2092 24.2844 34.2092H40.7164C41.2559 34.2092 41.6914 33.7737 41.6914 33.2342V31.8562C41.6914 30.1792 40.3264 28.8077 38.6494 28.8077H35.5424V24.7322C38.1749 23.8157 40.1899 21.7617 41.1259 19.2202H44.4539C44.9479 19.2202 45.3639 18.8497 45.4224 18.3557L46.7289 6.89616C46.7614 6.62316 46.6704 6.34366 46.4884 6.13566C46.3064 5.92766 46.0399 5.81066 45.7604 5.81066H41.6914V3.24966C41.6914 2.71016 41.2559 2.27466 40.7164 2.27466ZM21.4179 17.2637L20.3324 7.75416H23.3094V16.0547C23.3094 16.4642 23.3419 16.8672 23.3939 17.2637H21.4179ZM34.3269 23.0682C33.8979 23.1787 33.5989 23.5687 33.5989 24.0107V29.7827C33.5989 30.3222 34.0344 30.7577 34.5739 30.7577H38.6559C39.2539 30.7577 39.7479 31.2517 39.7479 31.8562V32.2592H25.2594V31.8562C25.2594 31.2517 25.7534 30.7577 26.3579 30.7577H30.4334C30.9729 30.7577 31.4084 30.3222 31.4084 29.7827V24.0107C31.4084 23.5687 31.1094 23.1787 30.6804 23.0682C27.4889 22.2427 25.2659 19.3567 25.2659 16.0612V6.78566V4.22466H39.7479V16.0612C39.7414 19.3567 37.5119 22.2362 34.3269 23.0682ZM44.6684 7.76066L43.5829 17.2702H41.6004C41.6524 16.8737 41.6849 16.4707 41.6849 16.0612V7.76066H44.6684Z" fill="#E92A46"/>
<path id="Vector_2" d="M57.0834 14.4822C55.9134 14.4822 54.8214 14.9307 54.0024 15.7497C53.2809 16.4712 52.8519 17.4007 52.7544 18.4017C52.3969 18.2587 52.0069 18.1742 51.5974 18.1742C49.8944 18.1742 48.5099 19.5587 48.5099 21.2617V22.4447C48.1004 22.2627 47.6454 22.1522 47.1709 22.1522C45.3509 22.1522 43.8689 23.6277 43.8689 25.4412V39.0327L42.0749 41.4637C41.9514 41.6327 41.8864 41.8342 41.8864 42.0422V51.9092H39.5529C39.0134 51.9092 38.5779 52.3447 38.5779 52.8842V61.7502C38.5779 62.2897 39.0134 62.7252 39.5529 62.7252H59.3974C59.9369 62.7252 60.3724 62.2897 60.3724 61.7502V52.8842C60.3724 52.3447 59.9369 51.9092 59.3974 51.9092H57.0964V49.0037L61.0484 45.9877C61.2889 45.8057 61.4319 45.5197 61.4319 45.2142V18.8307C61.4384 16.4322 59.4819 14.4822 57.0834 14.4822ZM50.4664 21.2617C50.4664 20.6377 50.9734 20.1242 51.6039 20.1242C52.2344 20.1242 52.7414 20.6312 52.7414 21.2617V29.5752C52.6894 29.5752 52.6374 29.5752 52.5854 29.5817C51.8119 29.6532 51.0839 29.9392 50.4729 30.4007V25.4477V21.2617H50.4664ZM45.8254 25.4412C45.8254 24.7002 46.4299 24.1022 47.1774 24.1022C47.9184 24.1022 48.5164 24.7002 48.5164 25.4412V32.7342L45.8254 36.3872V25.4412ZM40.5344 60.7752V58.2922H58.4289V60.7752H40.5344ZM58.4224 56.3422H40.5344V53.8592H42.8094C42.8289 53.8592 42.8484 53.8657 42.8679 53.8657C42.8874 53.8657 42.9069 53.8592 42.9264 53.8592H58.4289V56.3422H58.4224ZM59.4884 44.7267L55.5364 47.7427C55.2959 47.9247 55.1529 48.2107 55.1529 48.5162V51.9027H43.8429V42.3607L45.6499 39.9167C45.6564 39.9102 45.6629 39.9037 45.6694 39.8972L51.1879 32.4092C51.5649 31.8957 52.1239 31.5837 52.7609 31.5252C53.3914 31.4667 54.0024 31.6747 54.4639 32.1167C55.2244 32.8317 55.3739 33.9952 54.8214 34.8792L49.1144 44.0507C48.8284 44.5057 48.9714 45.1102 49.4264 45.3962C49.8814 45.6822 50.4859 45.5392 50.7719 45.0842L56.4789 35.9127C57.5189 34.2422 57.2329 32.0517 55.8029 30.6997C55.4714 30.3877 55.0944 30.1407 54.6914 29.9522V21.2617V18.8307C54.6914 18.1807 54.9384 17.5827 55.3934 17.1277C55.8484 16.6727 56.4464 16.4257 57.0964 16.4257C58.4224 16.4257 59.4949 17.5047 59.4949 18.8242V44.7267H59.4884Z" fill="#E92A46"/>
<path id="Vector_3" d="M25.4411 51.9092H23.1076V42.0422C23.1076 41.8342 23.0426 41.6327 22.9191 41.4637L21.1251 39.0327V25.4412C21.1251 23.6277 19.6431 22.1522 17.8231 22.1522C17.3421 22.1522 16.8936 22.2627 16.4841 22.4447V21.2617C16.4841 19.5587 15.0996 18.1742 13.3966 18.1742C12.9871 18.1742 12.5971 18.2587 12.2396 18.4017C12.1421 17.3942 11.7066 16.4647 10.9916 15.7497C10.1726 14.9307 9.08059 14.4822 7.91059 14.4822C5.51209 14.4822 3.56209 16.4322 3.56209 18.8307V45.2077C3.56209 45.5132 3.70509 45.7992 3.94559 45.9812L7.89759 48.9972V51.9027H5.60309C5.06359 51.9027 4.62809 52.3382 4.62809 52.8777V61.7502C4.62809 62.2897 5.06359 62.7252 5.60309 62.7252H25.4476C25.9871 62.7252 26.4226 62.2897 26.4226 61.7502V52.8842C26.4161 52.3447 25.9806 51.9092 25.4411 51.9092ZM17.8231 24.1022C18.5706 24.1022 19.1751 24.7002 19.1751 25.4412V36.3872L16.4841 32.7342V25.4412C16.4841 24.7002 17.0886 24.1022 17.8231 24.1022ZM13.4031 20.1242C14.0271 20.1242 14.5406 20.6312 14.5406 21.2617V25.4412V30.3942C13.9296 29.9392 13.2016 29.6467 12.4281 29.5752C12.3761 29.5687 12.3241 29.5752 12.2721 29.5687V21.2617C12.2656 20.6312 12.7726 20.1242 13.4031 20.1242ZM9.46409 47.7492L5.51209 44.7332V18.8307C5.51209 17.5047 6.59109 16.4322 7.91059 16.4322C8.55409 16.4322 9.15859 16.6792 9.61359 17.1342C10.0686 17.5892 10.3156 18.1872 10.3156 18.8372V21.2682V29.9522C9.91259 30.1407 9.53559 30.3877 9.20409 30.6997C7.76759 32.0517 7.48809 34.2422 8.52809 35.9127L14.2351 45.0842C14.5211 45.5392 15.1191 45.6822 15.5806 45.3962C16.0356 45.1102 16.1786 44.5122 15.8926 44.0507L10.1856 34.8792C9.63309 33.9952 9.78259 32.8317 10.5431 32.1167C11.0046 31.6812 11.6156 31.4667 12.2461 31.5252C12.8831 31.5837 13.4421 31.8957 13.8191 32.4092L19.3441 39.8972C19.3506 39.9037 19.3506 39.9102 19.3571 39.9167L21.1641 42.3672V51.9157H9.85409V48.5292C9.84759 48.2172 9.70459 47.9312 9.46409 47.7492ZM22.0806 53.8592C22.1001 53.8592 22.1196 53.8657 22.1391 53.8657C22.1586 53.8657 22.1781 53.8592 22.1976 53.8592H24.4726V56.3422H6.57809V53.8592H22.0806ZM6.57809 60.7752V58.2922H24.4726V60.7752H6.57809Z" fill="#E92A46"/>
<path id="Vector_4" d="M37.2254 11.3623L34.7229 9.99729L33.3579 7.49479C33.1889 7.18279 32.8574 6.98779 32.4999 6.98779C32.1424 6.98779 31.8174 7.18279 31.6419 7.49479L30.2769 9.99729L27.7744 11.3623C27.4624 11.5313 27.2674 11.8628 27.2674 12.2203C27.2674 12.5778 27.4624 12.9028 27.7744 13.0783L30.2769 14.4433L31.6419 16.9458C31.8109 17.2578 32.1424 17.4528 32.4999 17.4528C32.8574 17.4528 33.1824 17.2578 33.3579 16.9458L34.7229 14.4433L37.2254 13.0783C37.5374 12.9093 37.7324 12.5778 37.7324 12.2203C37.7324 11.8628 37.5374 11.5313 37.2254 11.3623ZM33.5399 12.8638C33.3774 12.9548 33.2409 13.0848 33.1499 13.2538L32.4999 14.4433L31.8499 13.2538C31.7589 13.0913 31.6289 12.9548 31.4599 12.8638L30.2704 12.2138L31.4599 11.5638C31.6224 11.4728 31.7589 11.3428 31.8499 11.1738L32.4999 9.98429L33.1499 11.1738C33.2409 11.3363 33.3709 11.4728 33.5399 11.5638L34.7294 12.2138L33.5399 12.8638Z" fill="#E92A46"/>
</g>
</svg>
